<svg width="222" height="172" viewBox="0 0 222 172" fill="none" xmlns="http://www.w3.org/2000/svg">
<g clip-path="url(#clip0)">
<path d="M9.84534 166.898C16.7651 171.883 25.7325 172.133 34.4005 171.52C35.6109 171.435 36.8127 171.335 38.0034 171.227C38.0106 171.225 38.02 171.225 38.0273 171.224C38.0845 171.218 38.1419 171.213 38.1966 171.209C38.4424 171.186 38.6883 171.164 38.9317 171.14L38.8742 171.25L38.6937 171.591C38.7586 171.477 38.8234 171.365 38.8882 171.251C38.9073 171.217 38.9287 171.183 38.9477 171.149C41.1932 167.241 43.4203 163.19 43.9884 158.728C44.5756 154.097 42.9253 148.852 38.8492 146.576C38.3146 146.278 37.7485 146.041 37.1614 145.869C36.9176 145.795 36.6705 145.735 36.4206 145.682C34.8919 145.342 33.3004 145.416 31.8097 145.896C30.3189 146.375 28.9828 147.243 27.9388 148.41C26.8947 149.577 26.1803 151.002 25.8691 152.536C25.5578 154.071 25.661 155.661 26.1679 157.142C22.7121 153.599 23.3568 147.85 24.5489 143.046C25.7432 138.241 27.1892 132.895 24.7599 128.58C23.4095 126.178 21.0347 124.688 18.3697 124.088C18.2879 124.07 18.2063 124.052 18.1243 124.037C14.949 123.394 11.6479 123.972 8.88039 125.657C3.78457 128.868 1.16729 134.957 0.317832 140.921C-1.0508 150.518 1.97801 161.229 9.84534 166.898Z" fill="#F2F2F2"/>
<path d="M12.0794 151.512C12.2803 153.629 12.7889 155.706 13.589 157.676C14.3264 159.42 15.3203 161.043 16.5378 162.493C19.0248 165.484 22.3134 167.734 25.8848 169.232C28.6156 170.351 31.4769 171.12 34.4005 171.52C35.6109 171.435 36.8127 171.335 38.0033 171.227C38.0105 171.225 38.02 171.225 38.0273 171.224C38.0845 171.218 38.1418 171.213 38.1966 171.209C38.4423 171.186 38.6882 171.164 38.9317 171.14L38.8742 171.25L38.6937 171.591C38.7585 171.477 38.8233 171.365 38.8882 171.251C38.9073 171.217 38.9287 171.183 38.9476 171.149C36.7558 168.965 35.1193 166.287 34.1753 163.341C33.2313 160.394 33.0073 157.265 33.5221 154.214C34.0607 151.184 35.3077 148.325 37.1613 145.869C36.9176 145.795 36.6705 145.735 36.4206 145.682C35.7161 146.645 35.0982 147.668 34.574 148.74C32.6931 152.563 32.0931 156.89 32.8626 161.08C33.5781 164.872 35.3606 168.381 38.0008 171.196C37.7696 171.179 37.5362 171.161 37.3077 171.14C32.9809 170.773 28.6629 169.843 24.7385 167.938C21.3839 166.349 18.4716 163.959 16.258 160.979C13.8812 157.701 12.8339 153.759 12.654 149.751C12.4632 145.461 13.0199 141.095 13.999 136.923C14.9987 132.646 16.5182 128.507 18.5233 124.599C18.5682 124.51 18.5772 124.408 18.5486 124.312C18.52 124.217 18.4559 124.137 18.3696 124.088C18.2977 124.039 18.2095 124.021 18.1243 124.037C18.0826 124.048 18.0439 124.069 18.0112 124.097C17.9784 124.125 17.9524 124.16 17.9351 124.199C17.6877 124.682 17.445 125.165 17.2114 125.654C15.2665 129.723 13.8345 134.018 12.9485 138.44C12.0884 142.706 11.6293 147.168 12.0794 151.512Z" fill="white"/>
<path d="M217.548 147.704H103.103C101.923 147.703 100.791 147.234 99.9566 146.399C99.1219 145.564 98.6525 144.433 98.6511 143.252V4.45208C98.6525 3.27173 99.1219 2.14009 99.9566 1.30545C100.791 0.470813 101.923 0.00132878 103.103 0H217.548C218.728 0.00132878 219.86 0.470813 220.695 1.30545C221.529 2.14009 221.999 3.27173 222 4.45208V143.252C221.999 144.433 221.529 145.564 220.695 146.399C219.86 147.234 218.728 147.703 217.548 147.704ZM103.103 0.523775C102.062 0.524953 101.063 0.939204 100.327 1.67565C99.5903 2.4121 99.1761 3.41059 99.1749 4.45208V143.252C99.1761 144.294 99.5903 145.292 100.327 146.029C101.063 146.765 102.062 147.179 103.103 147.181H217.548C218.589 147.179 219.588 146.765 220.324 146.029C221.061 145.292 221.475 144.294 221.476 143.252V4.45208C221.475 3.41059 221.061 2.4121 220.324 1.67565C219.588 0.939204 218.589 0.524953 217.548 0.523775H103.103Z" fill="#3F3D56"/>
<path d="M221.738 10.892H98.913V11.4157H221.738V10.892Z" fill="#3F3D56"/>
<path d="M104.936 7.85664C106.093 7.85664 107.032 6.91863 107.032 5.76154C107.032 4.60445 106.093 3.66644 104.936 3.66644C103.779 3.66644 102.841 4.60445 102.841 5.76154C102.841 6.91863 103.779 7.85664 104.936 7.85664Z" fill="#3F3D56"/>
<path d="M111.484 7.85664C112.641 7.85664 113.579 6.91863 113.579 5.76154C113.579 4.60445 112.641 3.66644 111.484 3.66644C110.326 3.66644 109.388 4.60445 109.388 5.76154C109.388 6.91863 110.326 7.85664 111.484 7.85664Z" fill="#3F3D56"/>
<path d="M118.031 7.85664C119.188 7.85664 120.126 6.91863 120.126 5.76154C120.126 4.60445 119.188 3.66644 118.031 3.66644C116.874 3.66644 115.936 4.60445 115.936 5.76154C115.936 6.91863 116.874 7.85664 118.031 7.85664Z" fill="#3F3D56"/>
<path d="M199.808 31.6883H118.099C117.196 31.6883 116.33 31.3296 115.691 30.6912C115.053 30.0527 114.694 29.1867 114.694 28.2838C114.694 27.3809 115.053 26.5149 115.691 25.8764C116.33 25.238 117.196 24.8793 118.099 24.8793H199.808C200.711 24.8793 201.576 25.238 202.215 25.8764C202.853 26.5149 203.212 27.3809 203.212 28.2838C203.212 29.1867 202.853 30.0527 202.215 30.6912C201.576 31.3296 200.711 31.6883 199.808 31.6883ZM118.099 25.403C117.335 25.403 116.602 25.7066 116.062 26.2468C115.522 26.7871 115.218 27.5198 115.218 28.2838C115.218 29.0478 115.522 29.7806 116.062 30.3208C116.602 30.8611 117.335 31.1646 118.099 31.1646H199.808C200.572 31.1646 201.304 30.8611 201.845 30.3208C202.385 29.7806 202.688 29.0478 202.688 28.2838C202.688 27.5198 202.385 26.7871 201.845 26.2468C201.304 25.7066 200.572 25.403 199.808 25.403H118.099Z" fill="#3F3D56"/>
<path d="M148.672 79.6138H116.459C115.279 79.6124 114.147 79.1429 113.313 78.3083C112.478 77.4737 112.009 76.342 112.007 75.1617V48.7111C112.009 47.5307 112.478 46.3991 113.313 45.5644C114.147 44.7298 115.279 44.2603 116.459 44.259H148.672C149.852 44.2603 150.984 44.7298 151.818 45.5644C152.653 46.3991 153.122 47.5307 153.124 48.7111V75.1617C153.122 76.342 152.653 77.4737 151.818 78.3083C150.984 79.1429 149.852 79.6124 148.672 79.6138ZM116.459 44.7827C115.418 44.7839 114.419 45.1982 113.683 45.9346C112.947 46.6711 112.532 47.6696 112.531 48.7111V75.1617C112.532 76.2032 112.947 77.2017 113.683 77.9381C114.419 78.6746 115.418 79.0888 116.459 79.09H148.672C149.713 79.0888 150.712 78.6746 151.448 77.9381C152.184 77.2017 152.599 76.2032 152.6 75.1617V48.7111C152.599 47.6696 152.184 46.6711 151.448 45.9346C150.712 45.1982 149.713 44.7839 148.672 44.7827H116.459Z" fill="#3F3D56"/>
<path d="M204.192 45.5684H171.98C169.665 45.5684 167.789 47.4444 167.789 49.7586V76.2092C167.789 78.5234 169.665 80.3994 171.98 80.3994H204.192C206.506 80.3994 208.382 78.5234 208.382 76.2092V49.7586C208.382 47.4444 206.506 45.5684 204.192 45.5684Z" fill="#F2F2F2"/>
<path d="M148.672 128.849H116.459C115.279 128.847 114.147 128.378 113.313 127.543C112.478 126.708 112.009 125.577 112.007 124.396V97.9459C112.009 96.7655 112.478 95.6339 113.313 94.7992C114.147 93.9646 115.279 93.4951 116.459 93.4938H148.672C149.852 93.4951 150.984 93.9646 151.818 94.7992C152.653 95.6339 153.122 96.7655 153.124 97.9459V124.396C153.122 125.577 152.653 126.708 151.818 127.543C150.984 128.378 149.852 128.847 148.672 128.849ZM116.459 94.0175C115.418 94.0187 114.419 94.433 113.683 95.1694C112.947 95.9059 112.532 96.9044 112.531 97.9459V124.396C112.532 125.438 112.947 126.436 113.683 127.173C114.419 127.909 115.418 128.324 116.459 128.325H148.672C149.713 128.324 150.712 127.909 151.448 127.173C152.184 126.436 152.599 125.438 152.6 124.396V97.9459C152.599 96.9044 152.184 95.9059 151.448 95.1694C150.712 94.433 149.713 94.0187 148.672 94.0175H116.459Z" fill="#3F3D56"/>
<path d="M204.192 94.8032H171.98C169.665 94.8032 167.789 96.6792 167.789 98.9934V125.444C167.789 127.758 169.665 129.634 171.98 129.634H204.192C206.506 129.634 208.382 127.758 208.382 125.444V98.9934C208.382 96.6792 206.506 94.8032 204.192 94.8032Z" fill="#F2F2F2"/>
<path d="M124.55 73.2166C124.544 73.2166 124.538 73.2164 124.532 73.2162L120.868 73.0805C120.754 73.077 120.645 73.0324 120.561 72.9547C120.477 72.8771 120.424 72.7718 120.412 72.6581C120.16 70.4082 119.122 58.9428 123.469 54.1774C124.085 53.4893 124.846 52.9469 125.697 52.5894C126.548 52.2319 127.468 52.0683 128.39 52.1106C128.427 52.113 128.465 52.105 128.498 52.0877C128.531 52.0703 128.559 52.0442 128.579 52.0121L129.466 50.6183C129.514 50.5428 129.583 50.4823 129.664 50.4439C129.745 50.4054 129.835 50.3904 129.925 50.4006C130.636 50.4866 134.26 50.8922 135.785 50.4509C135.875 50.4244 135.97 50.4249 136.06 50.4525C136.149 50.4801 136.229 50.5334 136.288 50.6059L137.453 52.0294C137.473 52.0551 137.499 52.0757 137.528 52.0894C137.558 52.1031 137.591 52.1095 137.623 52.1081C138.215 52.0963 140.293 52.211 142.111 54.2443C144.079 56.446 146.111 61.4137 144.61 72.5754C144.594 72.69 144.538 72.7952 144.45 72.8714C144.363 72.9477 144.252 72.9899 144.136 72.9903H141.25C141.136 72.9898 141.025 72.9483 140.939 72.8734C140.852 72.7984 140.795 72.6949 140.778 72.5816L139.836 66.0774C139.828 66.024 139.8 65.9754 139.758 65.9413C139.716 65.9072 139.663 65.8901 139.609 65.8934C139.555 65.8967 139.505 65.9202 139.467 65.9592C139.43 65.9981 139.408 66.0498 139.407 66.1038L139.342 69.1575C139.34 69.2481 139.312 69.3363 139.262 69.4117C139.212 69.4872 139.141 69.5468 139.059 69.5836C138.03 70.0359 132.595 72.1572 126.587 69.5004C126.506 69.4639 126.436 69.4055 126.386 69.3318C126.336 69.2581 126.307 69.172 126.303 69.083L126.185 66.3084C126.183 66.2542 126.16 66.2029 126.122 66.1647C126.083 66.1265 126.032 66.1043 125.978 66.1024C125.924 66.1005 125.871 66.1191 125.83 66.1545C125.789 66.1899 125.762 66.2395 125.756 66.2934L125.024 72.7928C125.01 72.9092 124.955 73.0165 124.867 73.0946C124.78 73.1727 124.667 73.2161 124.55 73.2166Z" fill="#3D3D3D"/>
<path d="M139.706 121.133H139.703L125.346 121.042C125.242 121.041 125.141 121.003 125.064 120.933C124.986 120.863 124.936 120.768 124.924 120.664L123.48 108.389C123.471 108.309 123.434 108.236 123.375 108.182C123.317 108.128 123.24 108.097 123.161 108.095C122.021 108.058 119.309 107.798 118.747 106.193C118.247 104.763 119.616 102.655 122.816 99.9254C122.87 99.8788 122.935 99.8466 123.006 99.8317C123.076 99.8169 123.148 99.8198 123.217 99.8403C123.286 99.8607 123.348 99.8981 123.399 99.9489C123.449 99.9997 123.486 100.062 123.506 100.131L125.167 105.862C125.188 105.931 125.229 105.992 125.287 106.035C125.344 106.078 125.413 106.102 125.485 106.103L139.098 106.194C139.169 106.195 139.239 106.173 139.296 106.131C139.354 106.089 139.396 106.029 139.417 105.961L141.266 100.08C141.287 100.014 141.323 99.9541 141.371 99.9054C141.42 99.8567 141.479 99.8204 141.545 99.7995C141.61 99.7787 141.68 99.774 141.748 99.7858C141.816 99.7976 141.879 99.8256 141.934 99.8674C143.195 100.831 147.259 104.138 146.59 106.253C146.24 107.361 144.66 107.979 141.894 108.089C141.815 108.091 141.739 108.123 141.681 108.176C141.622 108.23 141.585 108.304 141.576 108.382L140.131 120.754C140.119 120.859 140.069 120.955 139.991 121.025C139.912 121.095 139.811 121.133 139.706 121.133Z" fill="#3D3D3D"/>
<path d="M202.62 69.4403C198.109 70.3088 193.854 72.193 190.179 74.9501C189.993 74.4554 189.643 74.0395 189.187 73.772C188.876 73.579 188.536 73.4362 188.181 73.349C187.857 73.2665 187.546 73.4632 187.261 73.7466C186.932 74.1101 186.656 74.5181 186.442 74.9586C181.512 71.5744 174.033 69.4149 174.033 69.4149V68.7381C174.039 68.5786 174.055 68.4196 174.081 68.2622C174.107 68.0803 174.138 67.9195 174.179 67.7228C174.813 64.4952 177.322 57.1199 177.322 57.1199H180.158L185.657 58.262L191.844 57.8834L198.075 56.5869L198.883 56.4177C200.23 57.4752 201.76 64.878 202.36 68.0295C202.436 68.4293 202.496 68.7592 202.54 69.0025C202.593 69.2774 202.62 69.4403 202.62 69.4403Z" fill="white"/>
<path d="M185.696 101.931C185.696 101.931 184.379 102.261 182.336 107.795C180.292 113.329 179.569 120.479 179.569 120.479C179.569 120.479 178.42 122.425 183.324 122.555C183.324 122.555 182.929 123.84 185.696 123.642C188.463 123.445 188.065 123.447 188.065 123.447C188.065 123.447 189.844 122.327 190.635 122.524C191.426 122.721 191.92 122.788 192.776 123.512C193.631 124.236 196.368 123.941 196.4 123.382C196.422 123.107 196.422 122.831 196.4 122.557C196.4 122.557 200.584 122.821 199.794 119.79C199.003 116.758 198.344 111.784 198.344 111.784C198.344 111.784 196.203 102.065 193.764 101.933C191.324 101.801 185.696 101.931 185.696 101.931Z" fill="white"/>
<path d="M50.45 92.6023C54.7891 92.6023 58.3066 89.0847 58.3066 84.7457C58.3066 80.4066 54.7891 76.889 50.45 76.889C46.1109 76.889 42.5934 80.4066 42.5934 84.7457C42.5934 89.0847 46.1109 92.6023 50.45 92.6023Z" fill="#2F2E41"/>
<path d="M51.11 92.6173C54.6624 92.6173 57.5422 89.7374 57.5422 86.185C57.5422 82.6326 54.6624 79.7528 51.11 79.7528C47.5575 79.7528 44.6777 82.6326 44.6777 86.185C44.6777 89.7374 47.5575 92.6173 51.11 92.6173Z" fill="#FFB8B8"/>
<path d="M75.6065 105.749C75.5044 105.852 75.4105 105.963 75.3257 106.08L62.346 105.622L60.8614 102.838L56.3668 104.529L58.516 109.713C58.6896 110.132 58.9944 110.483 59.3846 110.714C59.7748 110.945 60.2294 111.043 60.68 110.993L75.3678 109.381C75.7091 109.822 76.1768 110.15 76.7087 110.319C77.2406 110.489 77.8114 110.493 78.3454 110.33C78.8794 110.167 79.3511 109.845 79.6979 109.408C80.0446 108.97 80.25 108.438 80.2866 107.88C80.3232 107.323 80.1894 106.768 79.9029 106.289C79.6164 105.81 79.1908 105.43 78.6827 105.198C78.1746 104.967 77.6082 104.896 77.0587 104.994C76.5092 105.093 76.0027 105.356 75.6065 105.749H75.6065Z" fill="#FFB8B8"/>
<path d="M54.6379 107.032C54.4725 106.958 54.325 106.849 54.2056 106.713C54.0861 106.576 53.9975 106.416 53.9458 106.242L52.1379 100.174C51.7453 99.334 51.702 98.3723 52.0174 97.5001C52.3327 96.6279 52.9811 95.9164 53.8203 95.5215C54.6595 95.1266 55.6211 95.0806 56.4941 95.3935C57.3672 95.7065 58.0805 96.3529 58.4778 97.191L61.9798 102.49C62.0797 102.641 62.1459 102.812 62.1738 102.992C62.2017 103.171 62.1906 103.354 62.1414 103.528C62.0922 103.703 62.0059 103.864 61.8885 104.003C61.7711 104.141 61.6253 104.252 61.4611 104.329L55.6884 107.024C55.5241 107.101 55.3453 107.142 55.164 107.143C54.9827 107.144 54.8032 107.107 54.6379 107.032Z" fill="#F7D74B"/>
<path d="M67.4219 168.636L70.2419 167.101L65.6628 155.494L61.5009 157.759L67.4219 168.636Z" fill="#FFB8B8"/>
<path d="M66.2014 168.107L71.7548 165.084L71.7551 165.084C72.2198 164.831 72.7299 164.672 73.2561 164.616C73.7823 164.56 74.3143 164.608 74.8219 164.758C75.3294 164.908 75.8025 165.156 76.2141 165.489C76.6256 165.821 76.9677 166.232 77.2207 166.697L77.2833 166.812L68.1907 171.761L66.2014 168.107Z" fill="#2F2E41"/>
<path d="M36.3917 168.649H39.6021L41.1297 156.265L36.3909 156.265L36.3917 168.649Z" fill="#FFB8B8"/>
<path d="M35.5725 167.601L41.8955 167.6H41.8957C42.4249 167.6 42.9489 167.705 43.4378 167.907C43.9266 168.11 44.3709 168.406 44.745 168.781C45.1192 169.155 45.416 169.599 45.6185 170.088C45.821 170.577 45.9252 171.101 45.9252 171.63V171.761L35.5727 171.761L35.5725 167.601Z" fill="#2F2E41"/>
<path d="M56.3425 113.684L57.3901 126.255L69.0751 161.31C69.1211 161.448 69.1378 161.594 69.1244 161.738C69.1109 161.883 69.0674 162.023 68.9968 162.15C68.9261 162.277 68.8298 162.388 68.714 162.476C68.5982 162.564 68.4653 162.627 68.324 162.66L64.7426 163.513C64.5133 163.568 64.2723 163.543 64.0585 163.444C63.8447 163.344 63.6707 163.176 63.5646 162.965L48.6255 133.332C48.5768 133.236 48.4994 133.156 48.4039 133.106C48.3084 133.055 48.1996 133.035 48.0923 133.048C47.9849 133.062 47.8845 133.108 47.8046 133.181C47.7247 133.254 47.6694 133.35 47.6462 133.456L41.0718 163.406C41.0206 163.639 40.8913 163.848 40.7052 163.997C40.5191 164.147 40.2874 164.228 40.0486 164.228H36.717C36.5782 164.229 36.4408 164.201 36.3127 164.148C36.1847 164.094 36.0686 164.016 35.9712 163.917C35.8737 163.818 35.797 163.701 35.7453 163.572C35.6937 163.443 35.6682 163.306 35.6703 163.167C35.9756 142.4 34.9684 118.737 42.9863 114.994L44.2957 111.589L56.3425 113.684Z" fill="#2F2E41"/>
<path d="M43.9186 112.481L42.5685 104.316C42.345 102.977 42.4622 101.603 42.9093 100.321C43.3564 99.0393 44.119 97.8907 45.1267 96.9812C46.1118 96.0804 47.3078 95.4421 48.6045 95.1252C49.9012 94.8083 51.2568 94.8229 52.5463 95.1677C52.6229 95.1881 52.6995 95.2094 52.7762 95.2309C54.3629 95.6852 55.7719 96.6155 56.8129 97.8962C57.8539 99.1769 58.4768 100.746 58.5973 102.392C58.855 105.938 58.6244 111.083 56.0627 115.453L56.013 115.538L43.9186 112.481Z" fill="#F7D74B"/>
<path d="M57.5087 82.7664C56.0388 83.7795 54.2942 84.3186 52.509 84.3115C53.1458 84.753 53.8708 85.0513 54.6339 85.1857C52.2604 85.6948 49.8074 85.7086 47.4283 85.2261C46.8995 85.1414 46.3893 84.9661 45.9199 84.7081C45.6861 84.5775 45.4823 84.3991 45.3219 84.1846C45.1615 83.97 45.048 83.7241 44.9889 83.4629C44.8308 82.5598 45.5345 81.7392 46.2658 81.1863C47.3855 80.3525 48.6766 79.7781 50.0455 79.5046C51.4145 79.231 52.8271 79.2652 54.1812 79.6046C55.0654 79.8331 55.9512 80.2193 56.5255 80.9294C57.0998 81.6394 57.27 82.7341 56.7228 83.4653L57.5087 82.7664Z" fill="#2F2E41"/>
<path d="M50.3466 76.8503C51.0923 73.8397 48.4199 70.4948 45.319 70.5574C42.1728 70.621 39.8576 73.464 38.2661 76.1787C36.6746 78.8934 35.093 81.9707 32.1713 83.1395C31.2044 83.5263 30.1567 83.6671 29.1221 83.5493C28.0874 83.4314 27.0982 83.0587 26.2431 82.4645C25.3879 81.8702 24.6936 81.0731 24.2224 80.1445C23.7512 79.2159 23.5178 78.1848 23.5431 77.1438C23.1508 80.4418 23.6943 84.0103 25.8212 86.5611C27.9481 89.112 31.9057 90.2617 34.7503 88.5474C36.375 87.5683 37.4134 85.8664 38.2695 84.1737C39.1256 82.481 39.8874 80.6961 41.1846 79.3122C42.4819 77.9282 44.4877 77.0096 46.2929 77.5919C47.0095 77.8231 47.6524 78.2736 48.3928 78.4107C49.1332 78.5477 50.0653 78.1959 50.1664 77.4497L50.3466 76.8503Z" fill="#2F2E41"/>
<path d="M34.8438 131.439C34.5768 131.126 34.3817 130.758 34.2721 130.362C34.1626 129.965 34.1413 129.55 34.2098 129.144C34.2783 128.739 34.4348 128.353 34.6685 128.015C34.9021 127.676 35.2071 127.393 35.562 127.185L41.1416 102.176L46.8017 104.499L39.5373 128.352C39.847 128.971 39.9187 129.682 39.7389 130.351C39.5591 131.02 39.1402 131.599 38.5617 131.98C37.9832 132.36 37.2852 132.515 36.5999 132.416C35.9147 132.316 35.2898 131.968 34.8438 131.439H34.8438Z" fill="#FFB8B8"/>
<path d="M38.931 105.763C38.8418 105.605 38.7878 105.43 38.7726 105.25C38.7574 105.069 38.7814 104.887 38.8428 104.717L40.9884 98.7599C41.171 97.8506 41.7068 97.0507 42.4783 96.5358C43.2497 96.0209 44.1939 95.8329 45.1037 96.0131C46.0135 96.1932 46.8148 96.7268 47.3318 97.4969C47.8488 98.2669 48.0393 99.2106 47.8617 100.121L47.5357 106.464C47.5264 106.645 47.4782 106.822 47.3943 106.983C47.3105 107.144 47.193 107.285 47.0498 107.396C46.9067 107.507 46.7412 107.586 46.5648 107.628C46.3883 107.669 46.205 107.672 46.0273 107.636L39.7811 106.38C39.6034 106.345 39.4354 106.271 39.2887 106.165C39.1419 106.058 39.0199 105.921 38.931 105.763Z" fill="#F7D74B"/>
<path d="M84.6458 102.958L84.5529 102.946L84.9029 100.399C84.9566 100.009 84.8529 99.6124 84.6145 99.298C84.3761 98.9836 84.0226 98.7768 83.6317 98.7231L78.2369 97.9815C77.8461 97.9278 77.4499 98.0315 77.1355 98.2699C76.8211 98.5083 76.6143 98.8618 76.5606 99.2527L74.6403 113.222C74.5866 113.613 74.6903 114.009 74.9287 114.323C75.1671 114.638 75.5206 114.844 75.9115 114.898L81.3063 115.64C81.6971 115.694 82.0933 115.59 82.4077 115.351C82.7221 115.113 82.9289 114.759 82.9826 114.369L84.3037 104.758L84.3967 104.771L84.6458 102.958Z" fill="#3F3D56"/>
<path d="M83.4622 99.4701L82.7906 99.3778C82.8111 99.4578 82.8116 99.5416 82.792 99.6218C82.7725 99.702 82.7336 99.7762 82.6786 99.8378C82.6236 99.8994 82.5544 99.9466 82.4769 99.9751C82.3994 100.004 82.3161 100.013 82.2343 100.001L79.2864 99.5962C79.2046 99.5849 79.1268 99.5538 79.06 99.5054C78.9931 99.457 78.9391 99.3929 78.9028 99.3187C78.8665 99.2446 78.849 99.1627 78.8519 99.0802C78.8547 98.9976 78.8778 98.9171 78.9191 98.8456L78.2917 98.7594C78.1539 98.7404 78.0136 98.7488 77.879 98.7841C77.7444 98.8193 77.618 98.8807 77.5071 98.9648C77.3963 99.0489 77.303 99.154 77.2328 99.2741C77.1625 99.3942 77.1166 99.527 77.0976 99.6649L75.2687 112.97C75.2497 113.108 75.2581 113.248 75.2933 113.383C75.3286 113.517 75.39 113.644 75.4741 113.754C75.5582 113.865 75.6633 113.959 75.7834 114.029C75.9035 114.099 76.0363 114.145 76.1741 114.164L81.3447 114.875C81.6231 114.913 81.9053 114.839 82.1292 114.669C82.3532 114.499 82.5005 114.248 82.5387 113.969L84.3677 100.664C84.406 100.386 84.3321 100.104 84.1623 99.8796C83.9925 99.6557 83.7407 99.5084 83.4622 99.4701L83.4622 99.4701Z" fill="white"/>
<path d="M79.7952 110.516C81.3862 110.516 82.6759 109.227 82.6759 107.636C82.6759 106.045 81.3862 104.755 79.7952 104.755C78.2042 104.755 76.9144 106.045 76.9144 107.636C76.9144 109.227 78.2042 110.516 79.7952 110.516Z" fill="#3D3D3D"/>
<path d="M79.5097 108.735C79.4449 108.735 79.3818 108.714 79.3299 108.675L79.3267 108.673L78.6497 108.154C78.6182 108.13 78.5918 108.1 78.5719 108.066C78.552 108.032 78.539 107.994 78.5338 107.955C78.5285 107.916 78.5311 107.876 78.5413 107.837C78.5514 107.799 78.5691 107.763 78.5931 107.732C78.6172 107.701 78.6473 107.674 78.6815 107.654C78.7158 107.635 78.7536 107.622 78.7929 107.617C78.8321 107.611 78.872 107.614 78.9102 107.624C78.9484 107.635 78.9842 107.653 79.0156 107.677L79.4541 108.013L80.4903 106.661C80.5144 106.63 80.5443 106.604 80.5785 106.584C80.6127 106.564 80.6505 106.551 80.6896 106.546C80.7288 106.541 80.7686 106.544 80.8068 106.554C80.8449 106.564 80.8807 106.582 80.912 106.606L80.9056 106.615L80.9122 106.606C80.9754 106.655 81.0168 106.726 81.0272 106.805C81.0377 106.884 81.0163 106.964 80.9679 107.028L79.749 108.617C79.7208 108.654 79.6845 108.684 79.643 108.704C79.6015 108.724 79.5559 108.735 79.5097 108.735Z" fill="white"/>
<path d="M106.346 171.798H6.56682C6.49736 171.798 6.43075 171.77 6.38164 171.721C6.33253 171.672 6.30493 171.606 6.30493 171.536C6.30493 171.467 6.33253 171.4 6.38164 171.351C6.43075 171.302 6.49736 171.274 6.56682 171.274H106.346C106.415 171.274 106.482 171.302 106.531 171.351C106.58 171.4 106.608 171.467 106.608 171.536C106.608 171.606 106.58 171.672 106.531 171.721C106.482 171.77 106.415 171.798 106.346 171.798Z" fill="#3F3D56"/>
</g>
<defs>
<clipPath id="clip0">
<rect width="222" height="171.798" fill="white"/>
</clipPath>
</defs>
</svg>
