<svg width="183" height="131" viewBox="0 0 183 131" fill="none" xmlns="http://www.w3.org/2000/svg">
<g clip-path="url(#clip0)">
<path d="M177.976 130.852H68.6402C67.5126 130.851 66.4315 130.402 65.6341 129.605C64.8367 128.808 64.3882 127.727 64.3869 126.599V4.25332C64.3882 3.12566 64.8367 2.04455 65.6341 1.24717C66.4315 0.449793 67.5126 0.00126946 68.6402 0H177.976C179.103 0.00126946 180.184 0.449793 180.982 1.24717C181.779 2.04455 182.228 3.12566 182.229 4.25332V126.599C182.228 127.727 181.779 128.808 180.982 129.605C180.184 130.402 179.103 130.851 177.976 130.852ZM68.6402 0.500391C67.6452 0.501517 66.6913 0.897274 65.9877 1.60084C65.2842 2.30441 64.8884 3.25833 64.8873 4.25332V126.599C64.8884 127.594 65.2842 128.548 65.9877 129.251C66.6913 129.955 67.6452 130.351 68.6402 130.352H177.976C178.971 130.351 179.925 129.955 180.628 129.251C181.332 128.548 181.727 127.594 181.729 126.599V4.25332C181.727 3.25833 181.332 2.30441 180.628 1.60084C179.925 0.897274 178.971 0.501517 177.976 0.500391H68.6402Z" fill="#3F3D56"/>
<path d="M181.979 10.4057H64.6371V10.9061H181.979V10.4057Z" fill="#3F3D56"/>
<path d="M70.3916 7.50587C71.497 7.50587 72.3931 6.60974 72.3931 5.50431C72.3931 4.39888 71.497 3.50275 70.3916 3.50275C69.2861 3.50275 68.39 4.39888 68.39 5.50431C68.39 6.60974 69.2861 7.50587 70.3916 7.50587Z" fill="#6C63FF"/>
<path d="M76.6465 7.50587C77.7519 7.50587 78.648 6.60974 78.648 5.50431C78.648 4.39888 77.7519 3.50275 76.6465 3.50275C75.541 3.50275 74.6449 4.39888 74.6449 5.50431C74.6449 6.60974 75.541 7.50587 76.6465 7.50587Z" fill="#6C63FF"/>
<path d="M82.9014 7.50587C84.0068 7.50587 84.903 6.60974 84.903 5.50431C84.903 4.39888 84.0068 3.50275 82.9014 3.50275C81.796 3.50275 80.8998 4.39888 80.8998 5.50431C80.8998 6.60974 81.796 7.50587 82.9014 7.50587Z" fill="#6C63FF"/>
<path d="M162.338 28.7725H84.2774C83.4148 28.7725 82.5875 28.4298 81.9776 27.8198C81.3676 27.2099 81.0249 26.3826 81.0249 25.5199C81.0249 24.6573 81.3676 23.83 81.9776 23.22C82.5875 22.6101 83.4148 22.2674 84.2774 22.2674H162.338C163.201 22.2674 164.028 22.6101 164.638 23.22C165.248 23.83 165.591 24.6573 165.591 25.5199C165.591 26.3826 165.248 27.2099 164.638 27.8198C164.028 28.4298 163.201 28.7725 162.338 28.7725ZM84.2774 22.7678C83.5475 22.7678 82.8475 23.0577 82.3314 23.5739C81.8153 24.09 81.5253 24.79 81.5253 25.5199C81.5253 26.2499 81.8153 26.9499 82.3314 27.466C82.8475 27.9821 83.5475 28.2721 84.2774 28.2721H162.338C163.068 28.2721 163.768 27.9821 164.285 27.466C164.801 26.9499 165.091 26.2499 165.091 25.5199C165.091 24.79 164.801 24.09 164.285 23.5739C163.768 23.0577 163.068 22.7678 162.338 22.7678H84.2774Z" fill="#3F3D56"/>
<path d="M143.037 54.4402H107.509C106.978 54.4402 106.469 54.2293 106.094 53.854C105.719 53.4786 105.508 52.9695 105.508 52.4386C105.508 51.9078 105.719 51.3987 106.094 51.0233C106.469 50.6479 106.978 50.4371 107.509 50.4371H143.037C143.568 50.4371 144.077 50.6479 144.452 51.0233C144.828 51.3987 145.039 51.9078 145.039 52.4386C145.039 52.9695 144.828 53.4786 144.452 53.854C144.077 54.2293 143.568 54.4402 143.037 54.4402Z" fill="#CCCCCC"/>
<path d="M163.553 61.1954H107.509C106.978 61.1954 106.469 60.9846 106.094 60.6092C105.719 60.2338 105.508 59.7247 105.508 59.1939C105.508 58.663 105.719 58.1539 106.094 57.7786C106.469 57.4032 106.978 57.1923 107.509 57.1923H163.553C164.084 57.1923 164.593 57.4032 164.968 57.7786C165.344 58.1539 165.555 58.663 165.555 59.1939C165.555 59.7247 165.344 60.2338 164.968 60.6092C164.593 60.9846 164.084 61.1954 163.553 61.1954Z" fill="#CCCCCC"/>
<path d="M94.1966 61.5708H83.4382C82.808 61.57 82.2039 61.3194 81.7583 60.8738C81.3127 60.4282 81.0621 59.8241 81.0613 59.1939V52.4386C81.0621 51.8085 81.3127 51.2043 81.7583 50.7587C82.2039 50.3131 82.808 50.0625 83.4382 50.0618H94.1966C94.8268 50.0625 95.4309 50.3131 95.8765 50.7587C96.3221 51.2043 96.5727 51.8085 96.5735 52.4386V59.1939C96.5727 59.8241 96.3221 60.4282 95.8765 60.8738C95.4309 61.3194 94.8268 61.57 94.1966 61.5708ZM83.4382 50.5622C82.9407 50.5627 82.4637 50.7606 82.112 51.1124C81.7602 51.4642 81.5623 51.9411 81.5617 52.4386V59.1939C81.5623 59.6914 81.7602 60.1684 82.112 60.5201C82.4637 60.8719 82.9407 61.0698 83.4382 61.0704H94.1966C94.6941 61.0698 95.1711 60.8719 95.5228 60.5201C95.8746 60.1684 96.0725 59.6914 96.0731 59.1939V52.4386C96.0725 51.9411 95.8746 51.4642 95.5228 51.1124C95.1711 50.7606 94.6941 50.5627 94.1966 50.5622H83.4382Z" fill="#CCCCCC"/>
<path d="M143.037 78.2088H107.509C106.978 78.2088 106.469 77.9979 106.094 77.6225C105.719 77.2471 105.508 76.738 105.508 76.2072C105.508 75.6763 105.719 75.1672 106.094 74.7919C106.469 74.4165 106.978 74.2056 107.509 74.2056H143.037C143.568 74.2056 144.077 74.4165 144.452 74.7919C144.828 75.1672 145.039 75.6763 145.039 76.2072C145.039 76.738 144.828 77.2471 144.452 77.6225C144.077 77.9979 143.568 78.2088 143.037 78.2088Z" fill="#CCCCCC"/>
<path d="M163.553 84.9641H107.509C106.978 84.9641 106.469 84.7532 106.094 84.3778C105.719 84.0025 105.508 83.4933 105.508 82.9625C105.508 82.4317 105.719 81.9225 106.094 81.5472C106.469 81.1718 106.978 80.9609 107.509 80.9609H163.553C164.084 80.9609 164.593 81.1718 164.968 81.5472C165.344 81.9225 165.555 82.4317 165.555 82.9625C165.555 83.4933 165.344 84.0025 164.968 84.3778C164.593 84.7532 164.084 84.9641 163.553 84.9641Z" fill="#CCCCCC"/>
<path d="M94.1966 85.3393H83.4382C82.808 85.3386 82.2039 85.088 81.7583 84.6424C81.3127 84.1968 81.0621 83.5926 81.0613 82.9625V76.2072C81.0621 75.577 81.3127 74.9729 81.7583 74.5273C82.2039 74.0817 82.808 73.831 83.4382 73.8303H94.1966C94.8268 73.831 95.4309 74.0817 95.8765 74.5273C96.3221 74.9729 96.5727 75.577 96.5735 76.2072V82.9625C96.5727 83.5926 96.3221 84.1968 95.8765 84.6424C95.4309 85.088 94.8268 85.3386 94.1966 85.3393ZM83.4382 74.3307C82.9407 74.3313 82.4637 74.5291 82.112 74.8809C81.7602 75.2327 81.5623 75.7097 81.5617 76.2072V82.9625C81.5623 83.46 81.7602 83.9369 82.112 84.2887C82.4637 84.6405 82.9407 84.8384 83.4382 84.8389H94.1966C94.6941 84.8384 95.1711 84.6405 95.5228 84.2887C95.8746 83.9369 96.0725 83.46 96.0731 82.9625V76.2072C96.0725 75.7097 95.8746 75.2327 95.5228 74.8809C95.1711 74.5291 94.6941 74.3313 94.1966 74.3307H83.4382Z" fill="#CCCCCC"/>
<path d="M143.037 101.977H107.509C106.978 101.977 106.469 101.766 106.094 101.391C105.719 101.016 105.508 100.507 105.508 99.9757C105.508 99.4449 105.719 98.9358 106.094 98.5604C106.469 98.1851 106.978 97.9742 107.509 97.9742H143.037C143.568 97.9742 144.077 98.1851 144.452 98.5604C144.828 98.9358 145.039 99.4449 145.039 99.9757C145.039 100.507 144.828 101.016 144.452 101.391C144.077 101.766 143.568 101.977 143.037 101.977Z" fill="#F2F2F2"/>
<path d="M163.553 108.733H107.509C106.978 108.733 106.469 108.522 106.094 108.146C105.719 107.771 105.508 107.262 105.508 106.731C105.508 106.2 105.719 105.691 106.094 105.316C106.469 104.94 106.978 104.729 107.509 104.729H163.553C164.084 104.729 164.593 104.94 164.968 105.316C165.344 105.691 165.555 106.2 165.555 106.731C165.555 107.262 165.344 107.771 164.968 108.146C164.593 108.522 164.084 108.733 163.553 108.733Z" fill="#F2F2F2"/>
<path d="M94.1966 109.108H83.4382C82.808 109.107 82.2039 108.857 81.7583 108.411C81.3127 107.965 81.0621 107.361 81.0613 106.731V99.9757C81.0621 99.3456 81.3127 98.7414 81.7583 98.2958C82.2039 97.8502 82.808 97.5996 83.4382 97.5989H94.1966C94.8268 97.5996 95.4309 97.8502 95.8765 98.2958C96.3221 98.7414 96.5727 99.3456 96.5735 99.9757V106.731C96.5727 107.361 96.3221 107.965 95.8765 108.411C95.4309 108.857 94.8268 109.107 94.1966 109.108Z" fill="#F2F2F2"/>
<path d="M88.8174 59.5038L88.2381 58.9812C86.1808 57.0923 84.8227 55.8664 84.8227 54.3393C84.8176 54.0487 84.8708 53.7601 84.9793 53.4905C85.0877 53.2209 85.2491 52.9757 85.454 52.7696C85.6589 52.5635 85.903 52.4006 86.1719 52.2905C86.4409 52.1805 86.7292 52.1255 87.0198 52.1288C87.3627 52.1306 87.7011 52.2071 88.0116 52.3528C88.322 52.4986 88.597 52.7101 88.8174 52.9728C89.0379 52.7101 89.3128 52.4986 89.6233 52.3528C89.9337 52.2071 90.2721 52.1306 90.6151 52.1288C90.9056 52.1255 91.1939 52.1805 91.4629 52.2905C91.7318 52.4006 91.976 52.5635 92.1808 52.7696C92.3857 52.9757 92.5471 53.2209 92.6556 53.4905C92.764 53.7601 92.8173 54.0487 92.8122 54.3393C92.8122 55.8664 91.454 57.0924 89.3967 58.9812L88.8174 59.5038Z" fill="#3D3D3D"/>
<path d="M88.8174 83.2723L88.2381 82.7497C86.1808 80.8609 84.8227 79.635 84.8227 78.1078C84.8176 77.8173 84.8708 77.5286 84.9793 77.259C85.0877 76.9894 85.2491 76.7443 85.454 76.5382C85.6589 76.3321 85.903 76.1692 86.1719 76.0591C86.4409 75.949 86.7292 75.894 87.0198 75.8974C87.3627 75.8992 87.7011 75.9756 88.0116 76.1214C88.322 76.2671 88.597 76.4787 88.8174 76.7414C89.0379 76.4787 89.3128 76.2671 89.6233 76.1214C89.9337 75.9756 90.2721 75.8992 90.6151 75.8974C90.9056 75.894 91.1939 75.949 91.4629 76.0591C91.7318 76.1692 91.976 76.3321 92.1808 76.5382C92.3857 76.7443 92.5471 76.9894 92.6556 77.259C92.764 77.5286 92.8173 77.8173 92.8122 78.1078C92.8122 79.635 91.454 80.8609 89.3967 82.7497L88.8174 83.2723Z" fill="#3D3D3D"/>
<path d="M43.3666 79.2738H32.6082C31.978 79.2731 31.3739 79.0225 30.9283 78.5769C30.4827 78.1313 30.232 77.5271 30.2313 76.897V70.1417C30.232 69.5115 30.4827 68.9074 30.9283 68.4618C31.3739 68.0162 31.978 67.7655 32.6082 67.7648H43.3666C43.9967 67.7655 44.6009 68.0162 45.0465 68.4618C45.4921 68.9074 45.7427 69.5115 45.7434 70.1417V76.897C45.7427 77.5271 45.4921 78.1313 45.0465 78.5769C44.6009 79.0225 43.9967 79.2731 43.3666 79.2738ZM32.6082 68.2652C32.1107 68.2658 31.6337 68.4637 31.2819 68.8154C30.9301 69.1672 30.7323 69.6442 30.7317 70.1417V76.897C30.7323 77.3945 30.9301 77.8714 31.2819 78.2232C31.6337 78.575 32.1107 78.7729 32.6082 78.7734H43.3666C43.8641 78.7729 44.3411 78.575 44.6928 78.2232C45.0446 77.8714 45.2425 77.3945 45.2431 76.897V70.1417C45.2425 69.6442 45.0446 69.1672 44.6928 68.8154C44.3411 68.4637 43.8641 68.2658 43.3666 68.2652H32.6082Z" fill="#3F3D56"/>
<path d="M37.9873 77.2068L37.408 76.6842C35.3508 74.7954 33.9926 73.5695 33.9926 72.0423C33.9875 71.7518 34.0407 71.4631 34.1492 71.1935C34.2576 70.9239 34.4191 70.6788 34.6239 70.4727C34.8288 70.2666 35.0729 70.1037 35.3419 69.9936C35.6108 69.8835 35.8991 69.8285 36.1897 69.8319C36.5326 69.8337 36.8711 69.9101 37.1815 70.0559C37.4919 70.2016 37.7669 70.4132 37.9873 70.6759C38.2078 70.4132 38.4828 70.2016 38.7932 70.0559C39.1036 69.9101 39.4421 69.8337 39.785 69.8319C40.0756 69.8285 40.3639 69.8835 40.6328 69.9936C40.9018 70.1037 41.1459 70.2666 41.3508 70.4727C41.5556 70.6788 41.7171 70.9239 41.8255 71.1935C41.934 71.4631 41.9872 71.7518 41.9821 72.0423C41.9821 73.5695 40.6239 74.7954 38.5667 76.6842L37.9873 77.2068Z" fill="#3D3D3D"/>
<path d="M31.7661 128.127L34.5487 127.465L33.3198 116.416L29.2128 117.393L31.7661 128.127Z" fill="#FFB8B8"/>
<path d="M40.5298 128.772L31.7844 130.852L30.9806 127.473L36.3471 126.197C36.7908 126.091 37.251 126.074 37.7014 126.146C38.1517 126.219 38.5834 126.379 38.9718 126.618C39.3602 126.857 39.6977 127.17 39.965 127.54C40.2323 127.91 40.4242 128.328 40.5298 128.772Z" fill="#2F2E41"/>
<path d="M29.0347 121.013L22.9911 100.3L30.5433 98.4266L34.9738 120.363C35.0063 120.523 35.0032 120.689 34.965 120.849C34.9267 121.008 34.854 121.157 34.7521 121.286C34.6502 121.414 34.5215 121.519 34.3749 121.592C34.2284 121.666 34.0675 121.706 33.9037 121.711L30.149 121.823C30.1377 121.823 30.1264 121.823 30.1152 121.823C29.8717 121.823 29.6347 121.744 29.4399 121.598C29.2451 121.452 29.1029 121.246 29.0347 121.013Z" fill="#2F2E41"/>
<path d="M14.5338 128.196L17.3941 128.196L18.7544 117.163L14.5328 117.164L14.5338 128.196Z" fill="#FFB8B8"/>
<path d="M22.9106 130.851L13.9212 130.852L13.9209 127.379L19.4371 127.379C20.3583 127.378 21.2417 127.744 21.8931 128.396C22.5446 129.047 22.9106 129.93 22.9106 130.851Z" fill="#2F2E41"/>
<path d="M14.0316 123.91C13.9265 123.808 13.8426 123.686 13.7849 123.552C13.7271 123.417 13.6967 123.273 13.6952 123.127L11.0893 102.464C11.0882 102.166 11.2052 101.88 11.4147 101.668C11.6241 101.456 11.909 101.335 12.207 101.333L18.0236 101.291H18.0319C18.3273 101.291 18.6106 101.408 18.821 101.615C19.0314 101.822 19.1523 102.104 19.1575 102.399L19.4668 122.754C19.4714 123.051 19.3583 123.338 19.1523 123.552C18.9463 123.766 18.664 123.889 18.367 123.896L14.836 124.232C14.8306 124.232 14.8251 124.232 14.8197 124.232C14.5248 124.233 14.2415 124.117 14.0316 123.91Z" fill="#2F2E41"/>
<path d="M15.2781 55.5206C18.6719 55.5206 21.4232 52.7694 21.4232 49.3755C21.4232 45.9817 18.6719 43.2305 15.2781 43.2305C11.8843 43.2305 9.13306 45.9817 9.13306 49.3755C9.13306 52.7694 11.8843 55.5206 15.2781 55.5206Z" fill="#FFB8B8"/>
<path d="M7.18249 101.385C3.18426 98.2608 3.22658 94.6162 4.59086 89.7483C4.97519 88.377 5.39001 86.9871 5.82913 85.5156C7.86947 78.6791 10.182 70.9302 9.30407 64.5322L9.42801 64.5152L9.30407 64.5322C9.06359 62.7798 9.67656 60.9366 10.9857 59.4753C12.2949 58.0137 14.057 57.2038 15.8283 57.2495C17.5966 57.2967 19.316 58.2006 20.5456 59.7296C21.7692 61.2512 22.3532 66.6014 22.5263 67.3683C23.3211 70.8877 23.8008 73.0121 24.1448 76.401C24.5516 80.4074 29.4245 92.3862 30.9773 94.395C31.3894 94.9253 31.6844 95.5369 31.843 96.1895C32.0016 96.8421 32.02 97.5209 31.8972 98.1812C31.7828 98.8093 31.5347 99.4055 31.1697 99.9293C30.8047 100.453 30.3313 100.892 29.7817 101.217C27.2618 102.758 24.4928 103.848 21.5988 104.438C20.3435 104.681 19.0678 104.804 17.7891 104.804C13.8218 104.804 10.031 103.61 7.18249 101.385Z" fill="#6C63FF"/>
<path d="M32.7368 78.2336C32.5777 77.9298 32.3539 77.6645 32.0812 77.4566C31.8084 77.2486 31.4934 77.1029 31.1583 77.0299C30.8232 76.9568 30.4761 76.9581 30.1416 77.0337C29.807 77.1093 29.4931 77.2573 29.222 77.4673L24.5655 74.8103L22.2607 77.2462L28.8892 80.9061C29.2722 81.3382 29.8004 81.6148 30.3738 81.6835C30.9471 81.7522 31.5258 81.6082 32 81.2788C32.4743 80.9494 32.8113 80.4575 32.9471 79.8962C33.0829 79.3349 33.0081 78.7434 32.7368 78.2336V78.2336Z" fill="#FFB8B8"/>
<path d="M25.6384 80.0346L17.2926 77.4127C16.1721 77.0581 15.1873 76.3684 14.471 75.4366C13.7548 74.5047 13.3416 73.3756 13.2872 72.2016L12.9281 64.0925C12.9079 63.6363 12.9799 63.1808 13.1399 62.7531C13.2998 62.3254 13.5443 61.9343 13.8589 61.6033C14.1734 61.2723 14.5515 61.0082 14.9705 60.8267C15.3895 60.6452 15.8408 60.55 16.2974 60.547C16.754 60.5439 17.2066 60.6329 17.628 60.8088C18.0494 60.9846 18.4309 61.2437 18.7499 61.5704C19.0689 61.8971 19.3187 62.2848 19.4844 62.7103C19.6501 63.1358 19.7282 63.5904 19.7142 64.0468L19.4846 71.5076L28.367 75.13C28.5238 75.194 28.6642 75.2926 28.7777 75.4183C28.8911 75.5441 28.9748 75.6938 29.0224 75.8564C29.0699 76.019 29.0802 76.1902 29.0524 76.3572C29.0246 76.5243 28.9595 76.683 28.8619 76.8214L26.8961 79.6094C26.7589 79.8047 26.563 79.9513 26.3368 80.0278C26.1107 80.1042 25.866 80.1066 25.6384 80.0346H25.6384Z" fill="#2F2E41"/>
<path d="M5.37469 57.0223C5.65549 55.3383 5.64517 53.5928 5.63515 51.9047C5.63246 51.4464 5.62971 50.9883 5.63253 50.531C5.6456 48.406 5.77748 46.1536 6.64626 44.0801C7.59182 41.8234 9.34282 40.1939 11.3302 39.7211C13.5709 39.1875 16.0021 40.3671 16.7341 42.3094C17.218 42.0361 17.7565 41.8736 18.3107 41.8337C18.865 41.7937 19.4212 41.8773 19.9393 42.0784C20.4573 42.2795 20.9243 42.5931 21.3065 42.9965C21.6886 43.4 21.9765 43.8832 22.1492 44.4114C22.322 44.9395 22.3754 45.4995 22.3055 46.0508C22.2356 46.6021 22.0442 47.131 21.7452 47.5994C21.4461 48.0677 21.0468 48.4639 20.576 48.7592C20.1053 49.0546 19.5749 49.2417 19.0231 49.3072L18.9292 49.3155L18.197 47.4126C18.1928 47.446 18.1888 47.4797 18.1848 47.5137C18.1382 47.9083 18.09 48.3162 17.7643 48.5518C17.3576 48.846 16.8511 49.8142 16.9991 50.795C17.0913 51.2969 17.2289 51.7894 17.4099 52.2665C17.6111 52.7903 17.7572 53.3336 17.8458 53.8877C17.9389 54.5979 17.753 55.3166 17.3273 55.8927C17.2012 56.0608 17.0421 56.2014 16.8597 56.3061C16.6774 56.4107 16.4757 56.4771 16.2669 56.5012L8.01348 57.3546L7.64447 54.5978L5.29681 57.4892L5.37469 57.0223Z" fill="#2F2E41"/>
<path d="M48.2877 131H0.250195C0.183839 131 0.120201 130.974 0.0732804 130.927C0.0263596 130.88 0 130.816 0 130.75C0 130.683 0.0263596 130.62 0.0732804 130.573C0.120201 130.526 0.183839 130.5 0.250195 130.5H48.2877C48.3541 130.5 48.4177 130.526 48.4646 130.573C48.5116 130.62 48.5379 130.683 48.5379 130.75C48.5379 130.816 48.5116 130.88 48.4646 130.927C48.4177 130.974 48.3541 131 48.2877 131Z" fill="#CCCCCC"/>
</g>
<defs>
<clipPath id="clip0">
<rect width="182.229" height="131" fill="white"/>
</clipPath>
</defs>
</svg>
