<svg width="254" height="148" viewBox="0 0 254 148" fill="none" xmlns="http://www.w3.org/2000/svg">
<g clip-path="url(#clip0)">
<path d="M130.51 124.856C129.851 124.856 129.186 124.845 128.533 124.825L128.548 124.351C129.485 124.38 130.442 124.388 131.384 124.375L131.391 124.85C131.098 124.854 130.804 124.856 130.51 124.856ZM134.247 124.746L134.219 124.272C135.158 124.216 136.11 124.139 137.046 124.04L137.096 124.512C136.152 124.611 135.194 124.69 134.247 124.746ZM125.679 124.672C124.732 124.599 123.775 124.504 122.835 124.389L122.893 123.918C123.826 124.032 124.776 124.126 125.715 124.198L125.679 124.672ZM139.931 124.15L139.859 123.68C140.792 123.539 141.733 123.375 142.653 123.192L142.746 123.657C141.818 123.841 140.871 124.007 139.931 124.15ZM120.007 123.976C119.072 123.817 118.127 123.635 117.201 123.434L117.301 122.97C118.221 123.17 119.158 123.351 120.086 123.508L120.007 123.976ZM145.536 123.036L145.422 122.575C146.337 122.348 147.258 122.098 148.159 121.831L148.294 122.286C147.386 122.555 146.458 122.808 145.536 123.036ZM114.422 122.763C113.505 122.519 112.581 122.251 111.678 121.965L111.821 121.513C112.717 121.796 113.634 122.062 114.544 122.304L114.422 122.763ZM151.015 121.41L150.859 120.962C151.748 120.653 152.641 120.319 153.516 119.969L153.692 120.41C152.811 120.762 151.91 121.099 151.015 121.41ZM108.966 121.038C108.075 120.711 107.178 120.357 106.301 119.988L106.485 119.55C107.355 119.917 108.245 120.268 109.13 120.593L108.966 121.038ZM156.315 119.289L156.118 118.857C156.972 118.47 157.83 118.056 158.668 117.627L158.884 118.05C158.039 118.482 157.175 118.899 156.315 119.289ZM103.688 118.816C102.831 118.408 101.971 117.974 101.132 117.525L101.356 117.107C102.189 117.552 103.042 117.982 103.892 118.388L103.688 118.816ZM161.394 116.693L161.159 116.281C161.978 115.814 162.795 115.323 163.587 114.821L163.841 115.222C163.042 115.728 162.219 116.223 161.394 116.693ZM98.6396 116.119C97.8248 115.634 97.0089 115.123 96.2146 114.6L96.4758 114.204C97.264 114.723 98.0737 115.23 98.8823 115.711L98.6396 116.119ZM166.218 113.641L165.947 113.252C166.717 112.714 167.486 112.15 168.233 111.576L168.522 111.953C167.77 112.53 166.995 113.099 166.218 113.641ZM93.8622 112.972C93.096 112.416 92.3306 111.833 91.5871 111.239L91.8833 110.868C92.6211 111.457 93.3808 112.036 94.1411 112.588L93.8622 112.972ZM170.747 110.161L170.441 109.798C171.159 109.192 171.874 108.56 172.566 107.92L172.888 108.269C172.191 108.913 171.47 109.55 170.747 110.161ZM89.3937 109.405C88.6801 108.78 87.9711 108.13 87.2866 107.472L87.6153 107.13C88.2947 107.782 88.9983 108.427 89.7064 109.048L89.3937 109.405ZM174.941 106.281L174.604 105.947C175.266 105.276 175.921 104.582 176.55 103.883L176.903 104.201C176.269 104.905 175.609 105.604 174.941 106.281ZM85.2701 105.447C84.6154 104.758 83.9688 104.047 83.3483 103.332L83.7068 103.021C84.3226 103.73 84.9643 104.437 85.6141 105.12L85.2701 105.447ZM178.768 102.034L178.401 101.732C178.999 101.004 179.588 100.253 180.152 99.4988L180.533 99.783C179.964 100.543 179.371 101.3 178.768 102.034ZM81.525 101.132C80.937 100.389 80.3581 99.6224 79.8042 98.8526L80.1894 98.5753C80.7392 99.3391 81.3137 100.1 81.8973 100.838L81.525 101.132ZM182.193 97.4538L181.8 97.1873C182.33 96.4077 182.848 95.6054 183.341 94.8022L183.746 95.0507C183.249 95.86 182.726 96.6685 182.193 97.4538ZM78.1897 96.4974C77.6724 95.7044 77.1661 94.8885 76.6848 94.0716L77.0937 93.8305C77.5714 94.6411 78.0739 95.451 78.5872 96.2378L78.1897 96.4974ZM185.187 92.5783L184.772 92.3488C185.228 91.524 185.67 90.677 186.088 89.8312L186.514 90.0416C186.093 90.8938 185.646 91.7473 185.187 92.5783ZM75.2927 91.5801C74.8499 90.7433 74.4206 89.8847 74.0167 89.0284L74.446 88.8258C74.8469 89.6756 75.2729 90.5277 75.7122 91.3581L75.2927 91.5801ZM187.723 87.4461L187.288 87.2556C187.666 86.3916 188.029 85.5069 188.367 84.626L188.811 84.7961C188.47 85.6839 188.104 86.5755 187.723 87.4461ZM72.8594 86.4218C72.4955 85.5483 72.147 84.6547 71.8236 83.7655L72.2698 83.6033C72.5906 84.4857 72.9365 85.3724 73.2975 86.2391L72.8594 86.4218ZM189.775 82.0979L189.325 81.9486C189.621 81.056 189.901 80.1436 190.156 79.2365L190.613 79.3649C190.356 80.2789 190.074 81.1985 189.775 82.0979ZM70.9091 81.0576C70.6267 80.1528 70.3613 79.2286 70.1203 78.3102L70.5795 78.1897C70.8186 79.1011 71.0821 80.0184 71.3623 80.9162L70.9091 81.0576ZM191.323 76.5963L190.86 76.4887C191.073 75.5738 191.267 74.6394 191.438 73.7119L191.905 73.7977C191.733 74.7325 191.537 75.6739 191.323 76.5963ZM69.4592 75.5295C69.2612 74.6023 69.082 73.6577 68.9267 72.7214L69.395 72.6435C69.5492 73.5728 69.727 74.5102 69.9235 75.4303L69.4592 75.5295ZM192.357 70.9759L191.887 70.9115C192.014 69.9817 192.122 69.0336 192.207 68.0934L192.68 68.1361C192.594 69.0837 192.486 70.039 192.357 70.9759V70.9759ZM68.5236 69.892C68.4117 68.9522 68.3197 67.9951 68.2503 67.0473L68.7239 67.0125C68.7926 67.9534 68.884 68.9031 68.9951 69.8359L68.5236 69.892ZM192.873 65.2849L192.399 65.2635C192.441 64.3229 192.463 63.3688 192.463 62.4279H192.938C192.938 63.376 192.916 64.3372 192.873 65.2849L192.873 65.2849ZM68.1065 64.1926C68.0903 63.6105 68.082 63.0166 68.0819 62.4279C68.0819 62.0625 68.085 61.6979 68.0913 61.334L68.566 61.3423C68.5598 61.7035 68.5566 62.0653 68.5566 62.4279C68.5568 63.0122 68.565 63.6017 68.581 64.1796L68.1065 64.1926ZM192.459 61.7656C192.45 60.8244 192.418 59.8704 192.366 58.9299L192.84 58.9035C192.892 59.8511 192.924 60.8123 192.934 61.7605L192.459 61.7656ZM68.6787 58.5082L68.2049 58.4785C68.2641 57.53 68.3459 56.5719 68.4478 55.6309L68.9198 55.682C68.8186 56.6159 68.7376 57.5667 68.6787 58.5082ZM192.144 56.1025C192.049 55.1666 191.931 54.2197 191.793 53.2878L192.263 53.2185C192.402 54.1574 192.521 55.1115 192.616 56.0545L192.144 56.1025ZM69.2894 52.87L68.8202 52.7974C68.9657 51.8583 69.1347 50.9117 69.3225 49.9837L69.7878 50.0778C69.6014 50.9987 69.4337 51.9381 69.2894 52.87ZM191.314 50.4926C191.133 49.5665 190.929 48.6343 190.707 47.7219L191.168 47.6097C191.392 48.5291 191.598 49.4685 191.78 50.4015L191.314 50.4926ZM70.4139 47.3115L69.9534 47.1961C70.1839 46.2766 70.4393 45.3495 70.7123 44.4404L71.1669 44.5769C70.896 45.4791 70.6427 46.3991 70.4139 47.3115ZM189.973 44.9821C189.708 44.0782 189.419 43.1689 189.113 42.2793L189.562 42.1249C189.87 43.0214 190.162 43.9378 190.428 44.8486L189.973 44.9821ZM72.0481 41.8726L71.6003 41.7152C71.9157 40.8177 72.2564 39.916 72.6127 39.035L73.0529 39.2131C72.6992 40.0872 72.3612 40.9821 72.0481 41.8726ZM188.129 39.6188C187.783 38.7452 187.412 37.8684 187.027 37.0126L187.46 36.8177C187.848 37.68 188.222 38.5635 188.57 39.4438L188.129 39.6188ZM74.1789 36.6036L73.7475 36.4054C74.144 35.542 74.566 34.6761 75.0018 33.8318L75.4236 34.0495C74.9911 34.8874 74.5723 35.7467 74.1789 36.6036ZM185.806 34.4589C185.381 33.6208 184.931 32.7809 184.468 31.963L184.881 31.7291C185.347 32.5534 185.801 33.3996 186.229 34.2442L185.806 34.4589ZM76.7845 31.556L76.373 31.3191C76.8466 30.4967 77.346 29.6736 77.8575 28.8727L78.2576 29.1282C77.75 29.923 77.2543 30.7399 76.7845 31.556ZM183.017 29.53C182.515 28.7314 181.99 27.9359 181.455 27.1653L181.845 26.8948C182.384 27.6713 182.913 28.4728 183.419 29.2776L183.017 29.53ZM79.8401 26.7709L79.4521 26.4974C79.9994 25.7212 80.5716 24.9476 81.1532 24.1979L81.5282 24.4888C80.9512 25.2329 80.3831 26.0006 79.8401 26.7709ZM179.787 24.8739C179.215 24.1245 178.62 23.3796 178.016 22.6599L178.38 22.3549C178.988 23.0803 179.588 23.8307 180.165 24.5857L179.787 24.8739ZM83.3183 22.2868L82.957 21.9789C83.5711 21.2576 84.2113 20.5395 84.8595 19.8448L85.2065 20.1687C84.5633 20.8582 83.928 21.5709 83.3183 22.2868ZM176.146 20.5283C175.508 19.8342 174.847 19.1462 174.18 18.4837L174.515 18.1469C175.187 18.8146 175.853 19.5077 176.496 20.207L176.146 20.5283ZM87.1886 18.1394L86.8566 17.8001C87.5355 17.1359 88.2379 16.4793 88.9444 15.8486L89.2605 16.2028C88.5595 16.8287 87.8623 17.4803 87.1886 18.1394V18.1394ZM172.123 16.5301C171.424 15.8963 170.703 15.2711 169.979 14.672L170.281 14.3062C171.011 14.9098 171.738 15.5397 172.442 16.1785L172.123 16.5301ZM91.4181 14.3625L91.1184 13.9944C91.8526 13.3965 92.6114 12.8068 93.3738 12.2416L93.6566 12.6229C92.8999 13.1839 92.1467 13.7691 91.4181 14.3625V14.3625ZM167.751 12.9129C166.997 12.3451 166.221 11.788 165.445 11.257L165.713 10.8653C166.495 11.4002 167.277 11.9615 168.037 12.5337L167.751 12.9129ZM95.9713 10.9878L95.7064 10.5939C96.4922 10.0652 97.3012 9.54746 98.111 9.05476L98.3576 9.46043C97.5541 9.94931 96.7512 10.4632 95.9713 10.9878V10.9878ZM163.066 9.70811C162.263 9.21158 161.44 8.72757 160.617 8.26929L160.848 7.85459C161.677 8.31635 162.507 8.80418 163.316 9.3043L163.066 9.70811ZM100.811 8.0441L100.583 7.62755C101.414 7.17263 102.267 6.73127 103.116 6.31553L103.325 6.74205C102.482 7.15455 101.636 7.59255 100.811 8.0441ZM158.104 6.94419C157.26 6.52333 156.394 6.11676 155.532 5.73579L155.724 5.30162C156.593 5.68549 157.465 6.0952 158.316 6.51929L158.104 6.94419ZM105.896 5.55695L105.707 5.12138C106.576 4.74481 107.464 4.38366 108.348 4.04789L108.517 4.4918C107.64 4.82491 106.758 5.18328 105.896 5.55695H105.896ZM152.907 4.64677C152.028 4.30591 151.128 3.98067 150.233 3.68026L150.384 3.23009C151.286 3.53294 152.193 3.8606 153.078 4.20425L152.907 4.64677ZM111.191 3.54616L111.043 3.09506C111.945 2.79928 112.866 2.52077 113.779 2.26752L113.906 2.72487C113 2.97627 112.086 3.25258 111.191 3.54616ZM147.523 2.84031C146.618 2.5822 145.694 2.34181 144.779 2.12589L144.888 1.6639C145.811 1.88145 146.741 2.12368 147.654 2.38365L147.523 2.84031ZM116.656 2.02957L116.55 1.56677C117.475 1.35548 118.417 1.16296 119.35 0.994675L119.434 1.46176C118.508 1.62889 117.573 1.8199 116.656 2.02957ZM142.004 1.53895C141.079 1.36544 140.138 1.21107 139.205 1.0801L139.271 0.609999C140.211 0.742011 141.16 0.897549 142.091 1.07233L142.004 1.53895ZM122.237 1.02238L122.174 0.551812C123.114 0.426405 124.069 0.320934 125.014 0.238643L125.056 0.711525C124.118 0.793353 123.169 0.897901 122.237 1.02238V1.02238ZM136.388 0.750005C135.453 0.66192 134.501 0.593999 133.558 0.548451L133.582 0.0741885C134.531 0.120202 135.49 0.188584 136.432 0.277376L136.388 0.750005ZM127.886 0.529443L127.867 0.0551696C128.739 0.0187763 129.628 0.000232621 130.51 0L130.725 0.000351329L130.723 0.475088L130.51 0.474737C129.635 0.474972 128.752 0.4934 127.886 0.529446V0.529443Z" fill="#3F3D56"/>
<path d="M191.319 114.239C190.756 114.239 190.205 114.072 189.736 113.759C189.268 113.446 188.903 113.001 188.687 112.48C188.472 111.96 188.415 111.387 188.525 110.834C188.635 110.282 188.906 109.774 189.305 109.376C189.703 108.978 190.211 108.706 190.763 108.596C191.316 108.487 191.888 108.543 192.409 108.759C192.929 108.974 193.374 109.339 193.687 109.808C194 110.276 194.167 110.827 194.167 111.39C194.166 112.145 193.866 112.869 193.332 113.403C192.798 113.937 192.074 114.238 191.319 114.239ZM191.319 109.016C190.849 109.016 190.391 109.156 190 109.417C189.61 109.677 189.306 110.048 189.126 110.482C188.946 110.916 188.899 111.393 188.991 111.853C189.082 112.314 189.309 112.737 189.64 113.069C189.972 113.401 190.395 113.627 190.856 113.718C191.316 113.81 191.794 113.763 192.227 113.583C192.661 113.403 193.032 113.099 193.293 112.709C193.553 112.319 193.693 111.86 193.693 111.39C193.692 110.761 193.442 110.157 192.997 109.712C192.552 109.267 191.948 109.017 191.319 109.016Z" fill="#2F2E41"/>
<path d="M115.552 41.1619V56.7522C115.551 56.8963 115.494 57.0343 115.392 57.1362C115.29 57.238 115.152 57.2954 115.008 57.2958H114.621V138.511C114.621 140.759 113.728 142.914 112.139 144.503C110.55 146.092 108.394 146.985 106.147 146.985H55.4001C54.2874 146.985 53.1856 146.766 52.1577 146.34C51.1297 145.914 50.1958 145.29 49.4091 144.503C48.6224 143.716 47.9984 142.782 47.5728 141.754C47.1471 140.726 46.9282 139.624 46.9284 138.511V60.1442H46.6483C46.5466 60.1444 46.4491 60.1042 46.377 60.0326C46.305 59.961 46.2642 59.8637 46.2637 59.7621V50.8892C46.2637 50.8387 46.2737 50.7887 46.293 50.7421C46.3123 50.6954 46.3406 50.653 46.3763 50.6173C46.412 50.5816 46.4544 50.5533 46.5011 50.534C46.5478 50.5146 46.5978 50.5047 46.6483 50.5047H46.9284V47.1626H46.6459C46.5392 47.1621 46.4371 47.1194 46.3619 47.0438C46.2866 46.9681 46.2445 46.8657 46.2448 46.759V38.0073C46.245 37.901 46.2874 37.7991 46.3625 37.7239C46.4377 37.6487 46.5396 37.6064 46.6459 37.6061H46.9284V33.0439H46.6411C46.5944 33.044 46.548 33.0348 46.5048 33.0169C46.4616 32.999 46.4223 32.9728 46.3892 32.9397C46.3562 32.9067 46.3299 32.8674 46.3121 32.8242C46.2942 32.7809 46.285 32.7346 46.2851 32.6878V27.912C46.2849 27.8173 46.3222 27.7263 46.389 27.6591C46.4557 27.5919 46.5464 27.554 46.6411 27.5536H46.9284V17.8832C46.9285 15.6364 47.821 13.4816 49.4098 11.8929C50.9985 10.3042 53.1533 9.41158 55.4001 9.4115H106.147C108.394 9.41149 110.549 10.304 112.138 11.8926C113.727 13.4813 114.62 15.6361 114.621 17.8832V40.6183H115.008C115.152 40.6187 115.29 40.6761 115.392 40.7779C115.494 40.8798 115.551 41.0178 115.552 41.1619Z" fill="#3F3D56"/>
<path d="M83.2184 13.757H74.9724C74.6391 13.757 74.369 14.0271 74.369 14.3603V15.0731C74.369 15.4063 74.6391 15.6764 74.9724 15.6764H83.2184C83.5517 15.6764 83.8218 15.4063 83.8218 15.0731V14.3603C83.8218 14.0271 83.5517 13.757 83.2184 13.757Z" fill="#E6E8EC"/>
<path d="M86.3398 15.8054C86.9411 15.8054 87.4285 15.318 87.4285 14.7167C87.4285 14.1154 86.9411 13.628 86.3398 13.628C85.7385 13.628 85.2511 14.1154 85.2511 14.7167C85.2511 15.318 85.7385 15.8054 86.3398 15.8054Z" fill="#E6E8EC"/>
<path d="M110.563 19.559V139.214C110.563 140.64 109.996 142.006 108.988 143.014C107.979 144.022 106.612 144.588 105.187 144.588H56.6094C55.9032 144.589 55.2038 144.451 54.5511 144.182C53.8984 143.912 53.3053 143.516 52.8058 143.017C52.3064 142.518 51.9104 141.925 51.6405 141.272C51.3706 140.62 51.2321 139.92 51.233 139.214V19.559C51.233 18.853 51.3721 18.1538 51.6422 17.5015C51.9124 16.8492 52.3084 16.2565 52.8077 15.7573C53.3069 15.258 53.8996 14.862 54.5519 14.5918C55.2042 14.3216 55.9034 14.1826 56.6094 14.1826H63.88V15.1155C63.88 16.2896 64.3464 17.4156 65.1766 18.2458C66.0069 19.076 67.1329 19.5424 68.3069 19.5424H93.0122C94.1863 19.5424 95.3123 19.076 96.1425 18.2458C96.9727 17.4156 97.4392 16.2896 97.4392 15.1155V14.1826H105.187C105.893 14.1824 106.592 14.3213 107.245 14.5914C107.897 14.8615 108.49 15.2575 108.989 15.7568C109.488 16.2561 109.884 16.8489 110.154 17.5013C110.425 18.1537 110.563 18.8529 110.563 19.559Z" fill="#6C63FF"/>
<path opacity="0.2" d="M108.674 53.4079H53.6043V80.2305H108.674V53.4079Z" fill="black"/>
<path d="M195.076 22.7874H140.006V49.61H195.076V22.7874Z" fill="#F2F2F2"/>
<path d="M108.674 94.0641H53.6043V120.887H108.674V94.0641Z" fill="#3F3D56"/>
<path d="M102.977 33.5353C105.599 33.5353 107.724 31.4098 107.724 28.7879C107.724 26.166 105.599 24.0405 102.977 24.0405C100.355 24.0405 98.2296 26.166 98.2296 28.7879C98.2296 31.4098 100.355 33.5353 102.977 33.5353Z" fill="white"/>
<path d="M105.113 28.6352H103.129V26.6515H102.824V28.6352H100.841V28.9404H102.824V30.9241H103.129V28.9404H105.113V28.6352Z" fill="#3F3D56"/>
<path d="M188.904 19.2269H133.835V46.0495H188.904V19.2269Z" fill="#3F3D56"/>
<path d="M158.418 37.236C159.86 42.5649 164.797 45.8653 164.797 45.8653C164.797 45.8653 167.398 40.5257 165.956 35.1968C164.515 29.8678 159.577 26.5675 159.577 26.5675C159.577 26.5675 156.977 31.9071 158.418 37.236Z" fill="white"/>
<path d="M160.537 36.0908C164.492 39.9415 164.975 45.861 164.975 45.861C164.975 45.861 159.045 45.5372 155.089 41.6864C151.134 37.8357 150.651 31.9163 150.651 31.9163C150.651 31.9163 156.581 32.2401 160.537 36.0908Z" fill="#6C63FF"/>
<path d="M146.178 79.889H141.492V75.2031H146.178V79.889ZM141.852 79.5285H145.818V75.5635H141.852V79.5285Z" fill="#3F3D56"/>
<path d="M25.6685 35.1388C26.9897 35.1388 28.0608 34.0677 28.0608 32.7465C28.0608 31.4252 26.9897 30.3541 25.6685 30.3541C24.3472 30.3541 23.2761 31.4252 23.2761 32.7465C23.2761 34.0677 24.3472 35.1388 25.6685 35.1388Z" fill="#3F3D56"/>
<path d="M25.6685 39.6577C24.3016 39.6577 22.9654 39.2524 21.8288 38.493C20.6923 37.7335 19.8064 36.6542 19.2834 35.3913C18.7603 34.1284 18.6234 32.7388 18.8901 31.3982C19.1567 30.0575 19.815 28.8261 20.7815 27.8595C21.7481 26.893 22.9795 26.2347 24.3202 25.9681C25.6608 25.7014 27.0504 25.8383 28.3133 26.3614C29.5761 26.8844 30.6555 27.7703 31.4149 28.9068C32.1744 30.0434 32.5797 31.3796 32.5797 32.7465C32.5777 34.5788 31.8488 36.3355 30.5532 37.6312C29.2575 38.9268 27.5008 39.6556 25.6685 39.6577ZM25.6685 26.3669C24.4067 26.3669 23.1733 26.7411 22.1242 27.4421C21.0751 28.1431 20.2574 29.1394 19.7745 30.3051C19.2917 31.4708 19.1653 32.7536 19.4115 33.9911C19.6576 35.2286 20.2652 36.3653 21.1574 37.2575C22.0496 38.1497 23.1864 38.7573 24.4239 39.0035C25.6614 39.2496 26.9441 39.1233 28.1098 38.6405C29.2756 38.1576 30.2719 37.3399 30.9729 36.2908C31.6739 35.2417 32.0481 34.0082 32.0481 32.7465C32.0461 31.0551 31.3734 29.4336 30.1774 28.2376C28.9814 27.0416 27.3599 26.3688 25.6685 26.3669Z" fill="#2F2E41"/>
<path d="M246.822 146.53H0V147.005H246.822V146.53Z" fill="#3F3D56"/>
<path d="M120.542 49.1353H65.4727V75.9579H120.542V49.1353Z" fill="#3F3D56"/>
<path d="M93.6723 112.172C93.4916 112.172 93.3149 112.226 93.1646 112.326C93.0143 112.426 92.8971 112.569 92.8279 112.736C92.7588 112.903 92.7406 113.087 92.7759 113.264C92.8112 113.442 92.8982 113.604 93.0261 113.732C93.1539 113.86 93.3167 113.947 93.494 113.982C93.6713 114.018 93.8551 114 94.0221 113.93C94.1891 113.861 94.3319 113.744 94.4323 113.594C94.5327 113.443 94.5863 113.267 94.5863 113.086C94.5857 112.844 94.4891 112.612 94.3179 112.44C94.1466 112.269 93.9145 112.173 93.6723 112.172ZM91 105V105.914H91.914L93.5593 109.247L92.8714 110.366C92.7963 110.499 92.7569 110.648 92.7571 110.801C92.7571 111.413 93.1754 111.715 93.7426 111.715H99.0866V110.836H93.8544C93.8391 110.837 93.8238 110.834 93.8095 110.829C93.7952 110.824 93.7823 110.815 93.7715 110.804C93.7606 110.794 93.7523 110.781 93.7468 110.766C93.7414 110.752 93.7391 110.737 93.74 110.722C93.7521 110.682 93.7684 110.644 93.7886 110.608L94.2453 109.887H97.6502C97.8147 109.888 97.9764 109.844 98.1175 109.759C98.2586 109.675 98.3736 109.553 98.4499 109.407L100.096 106.577C100.128 106.505 100.144 106.427 100.142 106.348C100.141 106.289 100.129 106.231 100.105 106.177C100.082 106.124 100.048 106.075 100.005 106.034C99.9623 105.994 99.912 105.962 99.857 105.942C99.8019 105.921 99.7432 105.912 99.6845 105.914H92.9199L92.4856 105H91ZM98.172 112.172C97.9913 112.172 97.8146 112.226 97.6644 112.326C97.5142 112.427 97.3971 112.57 97.3281 112.737C97.259 112.904 97.241 113.087 97.2763 113.265C97.3117 113.442 97.3988 113.605 97.5266 113.733C97.6544 113.86 97.8173 113.947 97.9946 113.982C98.1719 114.018 98.3556 114 98.5226 113.93C98.6895 113.861 98.8323 113.744 98.9327 113.594C99.0331 113.443 99.0866 113.267 99.0866 113.086C99.086 112.844 98.9894 112.612 98.818 112.44C98.6466 112.269 98.4143 112.173 98.172 112.172Z" fill="#6C63FF"/>
<path d="M97.0026 107.529H96.2361V106.762H95.6613V107.529H94.8948V108.103H95.6613V108.87H96.2361V108.103H97.0026V107.529Z" fill="white"/>
<path d="M73.4179 64V60.9541H74.2861C74.4564 60.9541 74.6112 60.9696 74.7504 61.0006C74.8928 61.0315 75.0136 61.0826 75.1126 61.1538C75.2117 61.2219 75.289 61.3132 75.3448 61.4277C75.4005 61.5423 75.4283 61.6831 75.4283 61.8503C75.4283 62.0112 75.4005 62.1505 75.3448 62.2681C75.2921 62.3858 75.2163 62.4833 75.1172 62.5606C75.0182 62.638 74.899 62.6968 74.7597 62.7371C74.6235 62.7742 74.4719 62.7928 74.3047 62.7928H73.8033V64H73.4179ZM73.8033 62.4771H74.2583C74.5245 62.4771 74.721 62.4275 74.8479 62.3285C74.978 62.2263 75.043 62.0669 75.043 61.8503C75.043 61.6305 74.9749 61.4788 74.8387 61.3952C74.7056 61.3086 74.5059 61.2652 74.2397 61.2652H73.8033V62.4771ZM76.0106 64V61.7435H76.3263L76.3588 62.1521H76.3728C76.4502 62.0097 76.543 61.8967 76.6514 61.8131C76.7628 61.7295 76.8835 61.6877 77.0135 61.6877C77.1033 61.6877 77.1838 61.7032 77.255 61.7342L77.1807 62.0685C77.1435 62.0561 77.1095 62.0468 77.0785 62.0406C77.0476 62.0344 77.0089 62.0313 76.9624 62.0313C76.8665 62.0313 76.7659 62.07 76.6606 62.1474C76.5585 62.2248 76.4687 62.3594 76.3913 62.5514V64H76.0106ZM77.6203 64V61.7435H78.001V64H77.6203ZM77.8153 61.2792C77.741 61.2792 77.6775 61.2559 77.6249 61.2095C77.5754 61.1631 77.5506 61.1043 77.5506 61.0331C77.5506 60.9588 77.5754 60.9 77.6249 60.8566C77.6775 60.8102 77.741 60.787 77.8153 60.787C77.8896 60.787 77.9515 60.8102 78.001 60.8566C78.0536 60.9 78.0799 60.9588 78.0799 61.0331C78.0799 61.1043 78.0536 61.1631 78.001 61.2095C77.9515 61.2559 77.8896 61.2792 77.8153 61.2792ZM79.6544 64.0557C79.5058 64.0557 79.3665 64.0294 79.2365 63.9768C79.1065 63.9242 78.9935 63.8483 78.8976 63.7493C78.8047 63.6471 78.7304 63.5233 78.6747 63.3778C78.6221 63.2292 78.5958 63.0621 78.5958 62.8764C78.5958 62.6876 78.6252 62.5204 78.684 62.3749C78.7428 62.2263 78.8217 62.101 78.9208 61.9988C79.0198 61.8967 79.1343 61.8193 79.2644 61.7667C79.3975 61.7141 79.5367 61.6877 79.6822 61.6877C79.8308 61.6877 79.9577 61.7141 80.063 61.7667C80.1682 61.8193 80.2611 61.8812 80.3416 61.9524L80.1465 62.2031C80.0815 62.1443 80.0119 62.0963 79.9376 62.0592C79.8664 62.022 79.7859 62.0035 79.6962 62.0035C79.594 62.0035 79.4996 62.0251 79.4129 62.0685C79.3263 62.1087 79.252 62.1675 79.1901 62.2449C79.1282 62.3223 79.0786 62.4152 79.0415 62.5235C79.0074 62.6287 78.9904 62.7464 78.9904 62.8764C78.9904 63.0064 79.0074 63.124 79.0415 63.2292C79.0755 63.3345 79.122 63.4258 79.1808 63.5032C79.2427 63.5775 79.317 63.6363 79.4036 63.6796C79.4903 63.7199 79.5847 63.74 79.6869 63.74C79.7921 63.74 79.8881 63.7183 79.9747 63.675C80.0645 63.6286 80.145 63.5744 80.2162 63.5125L80.3833 63.7678C80.2812 63.8576 80.1682 63.9288 80.0444 63.9814C79.9206 64.031 79.7906 64.0557 79.6544 64.0557ZM80.8804 64V61.7435H81.2611V64H80.8804ZM81.0754 61.2792C81.0011 61.2792 80.9377 61.2559 80.885 61.2095C80.8355 61.1631 80.8108 61.1043 80.8108 61.0331C80.8108 60.9588 80.8355 60.9 80.885 60.8566C80.9377 60.8102 81.0011 60.787 81.0754 60.787C81.1497 60.787 81.2116 60.8102 81.2611 60.8566C81.3138 60.9 81.3401 60.9588 81.3401 61.0331C81.3401 61.1043 81.3138 61.1631 81.2611 61.2095C81.2116 61.2559 81.1497 61.2792 81.0754 61.2792ZM82.023 64V61.7435H82.3388L82.3713 62.0685H82.3852C82.4935 61.9601 82.6065 61.8704 82.7241 61.7992C82.8449 61.7249 82.9842 61.6877 83.142 61.6877C83.3804 61.6877 83.5537 61.762 83.662 61.9106C83.7735 62.0592 83.8292 62.279 83.8292 62.5699V64H83.4485V62.621C83.4485 62.4074 83.4144 62.2542 83.3463 62.1613C83.2782 62.0654 83.1699 62.0174 83.0213 62.0174C82.9037 62.0174 82.8 62.0468 82.7102 62.1056C82.6204 62.1644 82.5183 62.2511 82.4038 62.3656V64H82.023ZM85.3237 65.0401C85.1844 65.0401 85.0575 65.0261 84.943 64.9983C84.8284 64.9735 84.7294 64.9348 84.6458 64.8822C84.5653 64.8296 84.5019 64.7661 84.4554 64.6918C84.4121 64.6175 84.3904 64.5309 84.3904 64.4318C84.3904 64.3358 84.4198 64.2445 84.4786 64.1579C84.5375 64.0712 84.6179 63.9923 84.7201 63.9211V63.9025C84.6644 63.8684 84.6164 63.822 84.5762 63.7632C84.539 63.7013 84.5204 63.6255 84.5204 63.5357C84.5204 63.4397 84.5467 63.3562 84.5994 63.285C84.652 63.2138 84.7077 63.1581 84.7665 63.1178V63.0992C84.6922 63.0373 84.6241 62.9553 84.5622 62.8532C84.5034 62.7479 84.474 62.6272 84.474 62.491C84.474 62.3672 84.4957 62.2557 84.539 62.1567C84.5854 62.0576 84.6473 61.9741 84.7247 61.906C84.8021 61.8348 84.8919 61.7806 84.994 61.7435C85.0993 61.7063 85.2092 61.6877 85.3237 61.6877C85.3856 61.6877 85.4429 61.6939 85.4955 61.7063C85.5512 61.7156 85.6007 61.728 85.6441 61.7435H86.4287V62.036H85.9644C86.0171 62.0886 86.0604 62.1551 86.0944 62.2356C86.1316 62.3161 86.1502 62.4043 86.1502 62.5003C86.1502 62.621 86.1285 62.7309 86.0852 62.8299C86.0418 62.9259 85.983 63.0079 85.9087 63.076C85.8344 63.141 85.7462 63.1921 85.6441 63.2292C85.545 63.2664 85.4382 63.285 85.3237 63.285C85.268 63.285 85.2107 63.2788 85.1519 63.2664C85.0931 63.2509 85.0374 63.2308 84.9847 63.206C84.9445 63.2401 84.9105 63.2788 84.8826 63.3221C84.8547 63.3623 84.8408 63.4134 84.8408 63.4753C84.8408 63.5465 84.8687 63.6053 84.9244 63.6518C84.9801 63.6982 85.0853 63.7214 85.2401 63.7214H85.6766C85.9397 63.7214 86.1362 63.7648 86.2662 63.8514C86.3993 63.935 86.4659 64.0712 86.4659 64.26C86.4659 64.3653 86.4396 64.4643 86.387 64.5572C86.3343 64.6531 86.2585 64.7367 86.1594 64.8079C86.0604 64.8791 85.9397 64.9348 85.7973 64.975C85.658 65.0184 85.5001 65.0401 85.3237 65.0401ZM85.3237 63.0296C85.3887 63.0296 85.4491 63.0172 85.5048 62.9925C85.5636 62.9677 85.6147 62.9321 85.658 62.8857C85.7044 62.8392 85.74 62.7835 85.7648 62.7185C85.7895 62.6504 85.8019 62.5746 85.8019 62.491C85.8019 62.3238 85.7555 62.1954 85.6626 62.1056C85.5698 62.0128 85.4568 61.9663 85.3237 61.9663C85.1906 61.9663 85.0776 62.0128 84.9847 62.1056C84.8919 62.1954 84.8455 62.3238 84.8455 62.491C84.8455 62.5746 84.8578 62.6504 84.8826 62.7185C84.9074 62.7835 84.9414 62.8392 84.9847 62.8857C85.0312 62.9321 85.0822 62.9677 85.138 62.9925C85.1968 63.0172 85.2587 63.0296 85.3237 63.0296ZM85.3794 64.7754C85.4877 64.7754 85.5852 64.7615 85.6719 64.7336C85.7617 64.7088 85.8375 64.6748 85.8994 64.6315C85.9613 64.5912 86.0093 64.5432 86.0434 64.4875C86.0774 64.4318 86.0944 64.3745 86.0944 64.3157C86.0944 64.2105 86.0557 64.1377 85.9784 64.0975C85.901 64.0573 85.788 64.0371 85.6394 64.0371H85.2494C85.2061 64.0371 85.1581 64.034 85.1055 64.0279C85.0559 64.0248 85.0064 64.0155 84.9569 64C84.8764 64.0588 84.8176 64.1207 84.7804 64.1857C84.7433 64.2507 84.7247 64.3157 84.7247 64.3807C84.7247 64.5015 84.782 64.5974 84.8965 64.6686C85.0141 64.7398 85.1751 64.7754 85.3794 64.7754ZM87.1016 64.0557C87.0242 64.0557 86.9576 64.0294 86.9019 63.9768C86.8493 63.9211 86.823 63.8514 86.823 63.7678C86.823 63.6781 86.8493 63.6069 86.9019 63.5543C86.9576 63.4985 87.0242 63.4707 87.1016 63.4707C87.1758 63.4707 87.2393 63.4985 87.2919 63.5543C87.3476 63.6069 87.3755 63.6781 87.3755 63.7678C87.3755 63.8514 87.3476 63.9211 87.2919 63.9768C87.2393 64.0294 87.1758 64.0557 87.1016 64.0557ZM89.2189 63.7353C89.3551 63.7353 89.4774 63.7059 89.5857 63.6471C89.6971 63.5883 89.7916 63.5032 89.8689 63.3918C89.9494 63.2803 90.0113 63.1472 90.0547 62.9925C90.098 62.8346 90.1197 62.6581 90.1197 62.4631C90.1197 62.2743 90.098 62.1041 90.0547 61.9524C90.0113 61.8007 89.9494 61.6723 89.8689 61.567C89.7916 61.4618 89.6971 61.3813 89.5857 61.3256C89.4774 61.2668 89.3551 61.2374 89.2189 61.2374C89.0827 61.2374 88.9589 61.2668 88.8475 61.3256C88.7391 61.3813 88.6447 61.4618 88.5642 61.567C88.4868 61.6723 88.4265 61.8007 88.3832 61.9524C88.3398 62.1041 88.3182 62.2743 88.3182 62.4631C88.3182 62.6581 88.3398 62.8346 88.3832 62.9925C88.4265 63.1472 88.4868 63.2803 88.5642 63.3918C88.6447 63.5032 88.7391 63.5883 88.8475 63.6471C88.9589 63.7059 89.0827 63.7353 89.2189 63.7353ZM90.1522 64.7661C90.0129 64.7661 89.8829 64.7475 89.7622 64.7104C89.6445 64.6763 89.5377 64.6268 89.4418 64.5618C89.3489 64.4968 89.2669 64.4194 89.1957 64.3297C89.1276 64.243 89.0719 64.147 89.0285 64.0418C88.8614 64.0201 88.7097 63.9675 88.5735 63.8839C88.4373 63.8003 88.3197 63.6905 88.2206 63.5543C88.1247 63.4181 88.0504 63.2587 87.9978 63.076C87.9452 62.8903 87.9188 62.686 87.9188 62.4631C87.9188 62.2186 87.9498 62.0004 88.0117 61.8085C88.0767 61.6135 88.1665 61.4494 88.281 61.3163C88.3955 61.1801 88.5317 61.0764 88.6896 61.0052C88.8506 60.934 89.027 60.8984 89.2189 60.8984C89.4108 60.8984 89.5857 60.9356 89.7436 61.0099C89.9045 61.081 90.0423 61.1847 90.1568 61.3209C90.2744 61.454 90.3642 61.6181 90.4261 61.8131C90.4911 62.005 90.5236 62.2217 90.5236 62.4631C90.5236 62.6829 90.4973 62.8841 90.4447 63.0667C90.3952 63.2463 90.3224 63.4041 90.2265 63.5403C90.1336 63.6734 90.0206 63.7833 89.8875 63.87C89.7544 63.9536 89.6074 64.0093 89.4464 64.0371C89.5176 64.1733 89.6182 64.2739 89.7482 64.3389C89.8782 64.407 90.0268 64.4411 90.194 64.4411C90.2621 64.4411 90.3209 64.4364 90.3704 64.4272C90.423 64.421 90.471 64.4117 90.5143 64.3993L90.5886 64.6965C90.5422 64.715 90.4803 64.7305 90.4029 64.7429C90.3255 64.7584 90.2419 64.7661 90.1522 64.7661ZM91.8008 64.0557C91.5593 64.0557 91.3829 63.9814 91.2714 63.8328C91.1631 63.6843 91.1089 63.4645 91.1089 63.1735V61.7435H91.4943V63.1225C91.4943 63.336 91.5268 63.4908 91.5918 63.5868C91.6599 63.6796 91.7683 63.7261 91.9168 63.7261C92.0345 63.7261 92.1382 63.6967 92.2279 63.6378C92.3177 63.5759 92.4167 63.4784 92.5251 63.3453V61.7435H92.9058V64H92.5901L92.5576 63.6471H92.5436C92.4384 63.7709 92.327 63.87 92.2093 63.9443C92.0948 64.0186 91.9586 64.0557 91.8008 64.0557ZM94.187 64.0557C93.9982 64.0557 93.8404 64 93.7135 63.8886C93.5896 63.7771 93.5277 63.6193 93.5277 63.415C93.5277 63.1673 93.6376 62.9785 93.8574 62.8485C94.0772 62.7154 94.4285 62.6226 94.9114 62.5699C94.9114 62.4987 94.9036 62.4291 94.8882 62.361C94.8758 62.2929 94.8526 62.2325 94.8185 62.1799C94.7845 62.1273 94.7365 62.0855 94.6746 62.0545C94.6158 62.0205 94.5399 62.0035 94.4471 62.0035C94.3171 62.0035 94.1948 62.0282 94.0803 62.0778C93.9657 62.1273 93.8636 62.183 93.7738 62.2449L93.6252 61.9803C93.7305 61.9122 93.8589 61.8472 94.0106 61.7852C94.1623 61.7202 94.3294 61.6877 94.5121 61.6877C94.7876 61.6877 94.9872 61.7729 95.111 61.9431C95.2348 62.1103 95.2967 62.3347 95.2967 62.6164V64H94.981L94.9485 63.7307H94.9346C94.8262 63.8205 94.7102 63.8979 94.5864 63.9629C94.4625 64.0248 94.3294 64.0557 94.187 64.0557ZM94.2985 63.7493C94.4068 63.7493 94.509 63.7245 94.6049 63.675C94.7009 63.6224 94.803 63.5465 94.9114 63.4475V62.8207C94.7225 62.8454 94.5631 62.8748 94.4331 62.9089C94.3062 62.9429 94.2025 62.9832 94.122 63.0296C94.0447 63.076 93.9874 63.1302 93.9502 63.1921C93.9162 63.2509 93.8992 63.3159 93.8992 63.3871C93.8992 63.5171 93.9379 63.61 94.0153 63.6657C94.0926 63.7214 94.187 63.7493 94.2985 63.7493ZM96.4106 64.0557C96.2652 64.0557 96.1615 64.0124 96.0996 63.9257C96.0377 63.839 96.0067 63.7121 96.0067 63.545V60.6941H96.3874V63.5728C96.3874 63.6347 96.3983 63.6781 96.4199 63.7028C96.4416 63.7276 96.4664 63.74 96.4942 63.74C96.5066 63.74 96.5174 63.74 96.5267 63.74C96.5391 63.74 96.5561 63.7369 96.5778 63.7307L96.6289 64.0186C96.6041 64.031 96.5747 64.0402 96.5407 64.0464C96.5066 64.0526 96.4633 64.0557 96.4106 64.0557ZM97.1901 64V61.7435H97.5709V64H97.1901ZM97.3852 61.2792C97.3109 61.2792 97.2474 61.2559 97.1948 61.2095C97.1453 61.1631 97.1205 61.1043 97.1205 61.0331C97.1205 60.9588 97.1453 60.9 97.1948 60.8566C97.2474 60.8102 97.3109 60.787 97.3852 60.787C97.4594 60.787 97.5213 60.8102 97.5709 60.8566C97.6235 60.9 97.6498 60.9588 97.6498 61.0331C97.6498 61.1043 97.6235 61.1631 97.5709 61.2095C97.5213 61.2559 97.4594 61.2792 97.3852 61.2792ZM99.0432 64.0557C98.9224 64.0557 98.8203 64.0371 98.7367 64C98.6562 63.9629 98.5897 63.9118 98.5371 63.8468C98.4875 63.7818 98.4519 63.7028 98.4303 63.61C98.4086 63.5171 98.3978 63.415 98.3978 63.3035V62.0545H98.0635V61.7667L98.4164 61.7435L98.4628 61.112H98.7832V61.7435H99.3914V62.0545H98.7832V63.3082C98.7832 63.4475 98.8079 63.5558 98.8574 63.6332C98.9101 63.7075 99.0014 63.7446 99.1314 63.7446C99.1716 63.7446 99.215 63.7384 99.2614 63.7261C99.3078 63.7137 99.3496 63.6997 99.3868 63.6843L99.461 63.9721C99.3991 63.9938 99.331 64.0124 99.2567 64.0279C99.1856 64.0464 99.1144 64.0557 99.0432 64.0557ZM99.9388 64.9704C99.8862 64.9704 99.8382 64.9658 99.7948 64.9565C99.7515 64.9503 99.7113 64.9395 99.6741 64.924L99.7484 64.6222C99.7732 64.6284 99.801 64.6346 99.832 64.6407C99.8629 64.65 99.8923 64.6547 99.9202 64.6547C100.05 64.6547 100.155 64.6082 100.236 64.5154C100.32 64.4256 100.385 64.3111 100.431 64.1718L100.482 64.0046L99.5766 61.7435H99.9713L100.431 62.9925C100.465 63.0915 100.501 63.1967 100.538 63.3082C100.578 63.4165 100.615 63.5233 100.649 63.6286H100.668C100.702 63.5264 100.734 63.4196 100.765 63.3082C100.796 63.1967 100.827 63.0915 100.858 62.9925L101.262 61.7435H101.634L100.784 64.1857C100.744 64.2972 100.699 64.4009 100.649 64.4968C100.6 64.5928 100.541 64.6748 100.473 64.7429C100.405 64.8141 100.327 64.8698 100.241 64.91C100.154 64.9503 100.053 64.9704 99.9388 64.9704ZM102.105 64.0557C102.028 64.0557 101.961 64.0294 101.906 63.9768C101.853 63.9211 101.827 63.8514 101.827 63.7678C101.827 63.6781 101.853 63.6069 101.906 63.5543C101.961 63.4985 102.028 63.4707 102.105 63.4707C102.18 63.4707 102.243 63.4985 102.296 63.5543C102.352 63.6069 102.379 63.6781 102.379 63.7678C102.379 63.8514 102.352 63.9211 102.296 63.9768C102.243 64.0294 102.18 64.0557 102.105 64.0557ZM103.273 64V61.2792H102.353V60.9541H104.582V61.2792H103.663V64H103.273ZM104.88 64V61.7435H105.196L105.228 62.1521H105.242C105.32 62.0097 105.413 61.8967 105.521 61.8131C105.632 61.7295 105.753 61.6877 105.883 61.6877C105.973 61.6877 106.053 61.7032 106.125 61.7342L106.05 62.0685C106.013 62.0561 105.979 62.0468 105.948 62.0406C105.917 62.0344 105.879 62.0313 105.832 62.0313C105.736 62.0313 105.636 62.07 105.53 62.1474C105.428 62.2248 105.338 62.3594 105.261 62.5514V64H104.88ZM107.149 64.0557C106.908 64.0557 106.731 63.9814 106.62 63.8328C106.512 63.6843 106.457 63.4645 106.457 63.1735V61.7435H106.843V63.1225C106.843 63.336 106.875 63.4908 106.94 63.5868C107.008 63.6796 107.117 63.7261 107.265 63.7261C107.383 63.7261 107.487 63.6967 107.576 63.6378C107.666 63.5759 107.765 63.4784 107.874 63.3453V61.7435H108.254V64H107.939L107.906 63.6471H107.892C107.787 63.7709 107.675 63.87 107.558 63.9443C107.443 64.0186 107.307 64.0557 107.149 64.0557ZM109.605 64.0557C109.444 64.0557 109.291 64.0263 109.146 63.9675C109 63.9087 108.873 63.8344 108.765 63.7446L108.955 63.4893C109.054 63.5697 109.155 63.6347 109.257 63.6843C109.362 63.7338 109.483 63.7586 109.619 63.7586C109.768 63.7586 109.879 63.7245 109.953 63.6564C110.028 63.5883 110.065 63.5047 110.065 63.4057C110.065 63.3469 110.049 63.2958 110.018 63.2525C109.987 63.2091 109.947 63.172 109.898 63.141C109.851 63.107 109.797 63.0776 109.735 63.0528C109.673 63.028 109.611 63.0033 109.549 62.9785C109.469 62.9507 109.388 62.9197 109.308 62.8857C109.228 62.8485 109.155 62.8052 109.09 62.7557C109.028 62.703 108.977 62.6427 108.937 62.5746C108.896 62.5065 108.876 62.4244 108.876 62.3285C108.876 62.2387 108.893 62.1551 108.927 62.0778C108.964 61.9973 109.015 61.9292 109.08 61.8735C109.149 61.8147 109.231 61.7698 109.327 61.7388C109.423 61.7048 109.531 61.6877 109.652 61.6877C109.794 61.6877 109.924 61.7125 110.042 61.762C110.162 61.8116 110.266 61.8719 110.353 61.9431L110.172 62.1846C110.094 62.1257 110.014 62.0778 109.93 62.0406C109.847 62.0035 109.755 61.9849 109.656 61.9849C109.514 61.9849 109.409 62.0174 109.341 62.0824C109.276 62.1474 109.243 62.2232 109.243 62.3099C109.243 62.3625 109.257 62.409 109.285 62.4492C109.313 62.4864 109.35 62.5204 109.396 62.5514C109.443 62.5792 109.495 62.6055 109.554 62.6303C109.616 62.652 109.679 62.6752 109.744 62.6999C109.825 62.7309 109.905 62.7634 109.986 62.7974C110.069 62.8315 110.144 62.8748 110.209 62.9274C110.274 62.977 110.326 63.0389 110.367 63.1132C110.41 63.1875 110.432 63.2772 110.432 63.3825C110.432 63.4753 110.413 63.562 110.376 63.6425C110.342 63.723 110.289 63.7942 110.218 63.8561C110.15 63.918 110.063 63.966 109.958 64C109.856 64.0371 109.738 64.0557 109.605 64.0557ZM111.58 64.0557C111.46 64.0557 111.358 64.0371 111.274 64C111.193 63.9629 111.127 63.9118 111.074 63.8468C111.025 63.7818 110.989 63.7028 110.968 63.61C110.946 63.5171 110.935 63.415 110.935 63.3035V62.0545H110.601V61.7667L110.954 61.7435L111 61.112H111.32V61.7435H111.929V62.0545H111.32V63.3082C111.32 63.4475 111.345 63.5558 111.395 63.6332C111.447 63.7075 111.539 63.7446 111.669 63.7446C111.709 63.7446 111.752 63.7384 111.799 63.7261C111.845 63.7137 111.887 63.6997 111.924 63.6843L111.998 63.9721C111.936 63.9938 111.868 64.0124 111.794 64.0279C111.723 64.0464 111.652 64.0557 111.58 64.0557Z" fill="white"/>
<path d="M169.489 122.101L138.942 131.658L100.942 107.679L100.94 107.677L100.816 107.601L100.795 107.587L100.493 107.397L96.8752 105.121C96.882 105.06 96.8906 105 96.9025 104.942C96.9579 104.66 97.0862 104.399 97.2745 104.182C97.3401 104.105 97.412 104.033 97.4895 103.967H97.4912C97.5254 103.938 97.5612 103.909 97.5988 103.882C97.6363 103.853 97.6755 103.826 97.7165 103.8C98.4162 103.331 99.4708 103.131 100.57 103.071C102.943 102.959 105.305 103.471 107.418 104.556C111.69 106.717 120.871 110.968 122.303 108.363C124.18 104.95 102.848 66.8942 102.848 66.8942C101.092 62.3804 102.377 60.9059 103.183 60.4417C103.207 60.4281 103.23 60.4144 103.253 60.4025C103.338 60.3586 103.426 60.3209 103.517 60.2898C103.564 60.2726 103.613 60.2584 103.662 60.2472C103.675 60.2435 103.688 60.2407 103.701 60.2386L106.531 63.9999L106.574 64.0562L106.725 64.2593L106.771 64.3207L123.924 87.1168C150.205 72.9525 159.25 110.838 159.25 110.838L169.489 122.101Z" fill="#FBBEBE"/>
<path d="M106.771 64.3207C106.709 64.4492 106.611 64.557 106.489 64.6311C106.367 64.7053 106.226 64.7427 106.084 64.7388C105.989 64.7385 105.895 64.7259 105.804 64.7013C105.169 64.5306 104.434 63.8344 103.884 62.8838C103.348 61.9555 103.128 61.022 103.253 60.4025C103.338 60.3586 103.426 60.321 103.517 60.2899C103.565 60.2727 103.613 60.2584 103.662 60.2472C103.442 60.6789 103.573 61.6602 104.181 62.7132C104.678 63.575 105.35 64.2269 105.891 64.3702C105.957 64.3978 106.028 64.4097 106.1 64.4051C106.171 64.4005 106.241 64.3795 106.303 64.3436C106.365 64.3078 106.417 64.2581 106.457 64.1985C106.497 64.1389 106.522 64.0709 106.531 63.9999L106.574 64.0562L106.725 64.2593L106.771 64.3207Z" fill="#3F3D56"/>
<path d="M100.816 107.601L100.795 107.587L100.493 107.398C100.495 106.911 100.126 106.114 99.3122 105.314C98.6244 104.643 97.8258 104.203 97.2746 104.182C97.3401 104.105 97.4121 104.033 97.4896 103.967H97.4913C97.5254 103.938 97.5612 103.909 97.5988 103.882C98.3419 104.101 99.0148 104.511 99.5511 105.07C100.445 105.949 100.937 106.95 100.816 107.601Z" fill="#3F3D56"/>
<path d="M224.963 107.573C231.669 127.755 229.314 146.705 229.314 146.705C229.314 146.705 216.086 132.933 209.38 112.751C202.674 92.5683 205.03 73.6185 205.03 73.6185C205.03 73.6185 218.257 87.3905 224.963 107.573Z" fill="#6C63FF"/>
<path d="M233.665 107.573C226.959 127.755 229.314 146.705 229.314 146.705C229.314 146.705 242.542 132.933 249.248 112.751C255.954 92.5683 253.599 73.6185 253.599 73.6185C253.599 73.6185 240.371 87.3905 233.665 107.573Z" fill="#6C63FF"/>
<path d="M236.366 107.791C236.816 129.053 228.972 146.464 228.972 146.464C228.972 146.464 220.399 129.401 219.949 108.138C219.5 86.8756 227.344 69.4655 227.344 69.4655C227.344 69.4655 235.917 86.5286 236.366 107.791Z" fill="#3F3D56"/>
<path d="M228.158 91.0813C229.307 91.0813 230.239 90.1493 230.239 88.9998C230.239 87.8502 229.307 86.9183 228.158 86.9183C227.008 86.9183 226.076 87.8502 226.076 88.9998C226.076 90.1493 227.008 91.0813 228.158 91.0813Z" fill="#6C63FF"/>
<path d="M224.11 106.808C224.749 106.808 225.267 106.29 225.267 105.652C225.267 105.013 224.749 104.495 224.11 104.495C223.472 104.495 222.954 105.013 222.954 105.652C222.954 106.29 223.472 106.808 224.11 106.808Z" fill="#6C63FF"/>
<path d="M210.002 95.3599C210.641 95.3599 211.159 94.8422 211.159 94.2035C211.159 93.5649 210.641 93.0471 210.002 93.0471C209.364 93.0471 208.846 93.5649 208.846 94.2035C208.846 94.8422 209.364 95.3599 210.002 95.3599Z" fill="#3F3D56"/>
<path d="M250.823 84.143C251.462 84.143 251.979 83.6252 251.979 82.9866C251.979 82.3479 251.462 81.8302 250.823 81.8302C250.184 81.8302 249.666 82.3479 249.666 82.9866C249.666 83.6252 250.184 84.143 250.823 84.143Z" fill="#3F3D56"/>
<path d="M216.016 106.23C216.654 106.23 217.172 105.712 217.172 105.074C217.172 104.435 216.654 103.917 216.016 103.917C215.377 103.917 214.859 104.435 214.859 105.074C214.859 105.712 215.377 106.23 216.016 106.23Z" fill="#3F3D56"/>
<path d="M240.3 99.5229C240.938 99.5229 241.456 99.0052 241.456 98.3665C241.456 97.7279 240.938 97.2101 240.3 97.2101C239.661 97.2101 239.143 97.7279 239.143 98.3665C239.143 99.0052 239.661 99.5229 240.3 99.5229Z" fill="#3F3D56"/>
<path d="M216.709 123.229C217.348 123.229 217.866 122.711 217.866 122.072C217.866 121.434 217.348 120.916 216.709 120.916C216.071 120.916 215.553 121.434 215.553 122.072C215.553 122.711 216.071 123.229 216.709 123.229Z" fill="#3F3D56"/>
<path d="M241.456 116.637C242.095 116.637 242.612 116.12 242.612 115.481C242.612 114.842 242.095 114.325 241.456 114.325C240.817 114.325 240.3 114.842 240.3 115.481C240.3 116.12 240.817 116.637 241.456 116.637Z" fill="#3F3D56"/>
<path d="M230.239 117.794C230.878 117.794 231.396 117.276 231.396 116.637C231.396 115.999 230.878 115.481 230.239 115.481C229.6 115.481 229.083 115.999 229.083 116.637C229.083 117.276 229.6 117.794 230.239 117.794Z" fill="#6C63FF"/>
<path d="M84.4249 107.019H77.4272V112.98H84.4249V107.019Z" fill="white"/>
<path d="M84.4452 113H77.4068V106.999H84.4452V113ZM77.4475 112.959H84.4045V107.04H77.4475V112.959Z" fill="#3F3D56"/>
<path d="M81.8008 108.179H80.0513V112.98H81.8008V108.179Z" fill="#6C63FF"/>
<path d="M81.8008 108.179H80.0513V112.98H81.8008V108.179Z" fill="#6C63FF"/>
<path opacity="0.2" d="M77.4475 107.457V108.424L84.4249 108.871L84.4043 107.677L77.4475 107.457Z" fill="black"/>
<path d="M84.8318 106.47H77.0204V108.179H84.8318V106.47Z" fill="white"/>
<path d="M84.8521 108.199H77V106.45H84.8521V108.199ZM77.0407 108.159H84.8114V106.491H77.0407L77.0407 108.159Z" fill="#3F3D56"/>
<path d="M81.8008 106.307H80.0513V108.159H81.8008V106.307Z" fill="#6C63FF"/>
<path d="M80.7387 104.693C81.2005 105.378 80.7654 106.479 80.7654 106.479C80.7654 106.479 79.5816 106.47 79.1198 105.786C78.658 105.101 79.0931 104 79.0931 104C79.0931 104 80.2769 104.009 80.7387 104.693Z" fill="#6C63FF"/>
<path d="M80.9506 104.693C80.4888 105.378 80.9239 106.479 80.9239 106.479C80.9239 106.479 82.1077 106.47 82.5695 105.786C83.0313 105.101 82.5962 104 82.5962 104C82.5962 104 81.4124 104.009 80.9506 104.693Z" fill="#6C63FF"/>
<path d="M71.7055 106.209C71.8066 106.209 71.8886 106.127 71.8886 106.026C71.8886 105.925 71.8066 105.843 71.7055 105.843C71.6044 105.843 71.5224 105.925 71.5224 106.026C71.5224 106.127 71.6044 106.209 71.7055 106.209Z" fill="#3F3D56"/>
<path d="M80.8039 107.06C80.905 107.06 80.987 106.978 80.987 106.877C80.987 106.776 80.905 106.694 80.8039 106.694C80.7028 106.694 80.6208 106.776 80.6208 106.877C80.6208 106.978 80.7028 107.06 80.8039 107.06Z" fill="#3F3D56"/>
<path d="M80.8039 111.068C80.905 111.068 80.987 110.986 80.987 110.884C80.987 110.783 80.905 110.701 80.8039 110.701C80.7028 110.701 80.6208 110.783 80.6208 110.884C80.6208 110.986 80.7028 111.068 80.8039 111.068Z" fill="#3F3D56"/>
<path d="M80.1937 105.819C80.2611 105.819 80.3158 105.765 80.3158 105.697C80.3158 105.63 80.2611 105.575 80.1937 105.575C80.1263 105.575 80.0717 105.63 80.0717 105.697C80.0717 105.765 80.1263 105.819 80.1937 105.819Z" fill="#3F3D56"/>
<path d="M82.0245 104.782C82.0919 104.782 82.1466 104.727 82.1466 104.66C82.1466 104.592 82.0919 104.538 82.0245 104.538C81.9571 104.538 81.9025 104.592 81.9025 104.66C81.9025 104.727 81.9571 104.782 82.0245 104.782Z" fill="#3F3D56"/>
<path d="M81.2312 107.65C81.2986 107.65 81.3532 107.595 81.3532 107.528C81.3532 107.461 81.2986 107.406 81.2312 107.406C81.1638 107.406 81.1091 107.461 81.1091 107.528C81.1091 107.595 81.1638 107.65 81.2312 107.65Z" fill="#3F3D56"/>
<path d="M80.4988 109.237C80.5662 109.237 80.6209 109.182 80.6209 109.115C80.6209 109.047 80.5662 108.993 80.4988 108.993C80.4314 108.993 80.3768 109.047 80.3768 109.115C80.3768 109.182 80.4314 109.237 80.4988 109.237Z" fill="#3F3D56"/>
<path d="M81.1294 109.786C81.1968 109.786 81.2515 109.731 81.2515 109.664C81.2515 109.597 81.1968 109.542 81.1294 109.542C81.062 109.542 81.0074 109.597 81.0074 109.664C81.0074 109.731 81.062 109.786 81.1294 109.786Z" fill="#3F3D56"/>
<path d="M80.987 112.085C81.0545 112.085 81.1091 112.03 81.1091 111.963C81.1091 111.895 81.0545 111.841 80.987 111.841C80.9196 111.841 80.865 111.895 80.865 111.963C80.865 112.03 80.9196 112.085 80.987 112.085Z" fill="#3F3D56"/>
<g clip-path="url(#clip1)">
<path d="M68.4799 104.923L59.2628 107.608L59.507 108.446L68.724 105.76L68.4799 104.923Z" fill="#3F3D56"/>
<path d="M60.3641 111.457L59.0056 106.794C58.9955 106.76 58.9996 106.723 59.0169 106.691C59.0342 106.659 59.0634 106.636 59.098 106.626L68.0916 104.006C68.1261 103.996 68.1633 104 68.1948 104.017C68.2264 104.034 68.2498 104.063 68.2599 104.098L69.4634 108.229L69.4262 108.24L68.2226 104.109C68.2154 104.084 68.1987 104.063 68.1762 104.051C68.1536 104.039 68.1271 104.036 68.1024 104.043L59.1088 106.663C59.0841 106.67 59.0633 106.687 59.0509 106.71C59.0386 106.732 59.0356 106.759 59.0428 106.783L60.4014 111.446L60.3641 111.457Z" fill="white"/>
<path d="M67.4727 108.248C67.4455 108.248 67.4189 108.239 67.3971 108.223C67.3753 108.206 67.3593 108.183 67.3517 108.157L67.1238 107.375C67.1145 107.343 67.1183 107.308 67.1344 107.279C67.1504 107.25 67.1775 107.228 67.2096 107.219L67.9916 106.991C68.0237 106.981 68.0582 106.985 68.0875 107.001C68.1168 107.017 68.1385 107.044 68.1479 107.077L68.3758 107.859C68.3851 107.891 68.3813 107.925 68.3652 107.954C68.3491 107.984 68.3221 108.006 68.29 108.015L67.508 108.243C67.4965 108.246 67.4847 108.248 67.4727 108.248Z" fill="#6C63FF"/>
<path d="M60.343 106.809C60.3407 106.801 60.3379 106.793 60.3347 106.785C60.3128 106.732 60.2721 106.689 60.2204 106.664C60.1686 106.639 60.1095 106.634 60.0544 106.65C59.9993 106.666 59.9521 106.702 59.9218 106.751C59.8915 106.799 59.8803 106.858 59.8903 106.914C59.8917 106.922 59.8936 106.931 59.896 106.939C59.9101 106.987 59.9396 107.029 59.9799 107.06C60.0202 107.09 60.0692 107.106 60.1196 107.106C60.1416 107.106 60.1635 107.103 60.1845 107.097C60.2438 107.08 60.2937 107.04 60.3234 106.985C60.3531 106.931 60.3602 106.868 60.343 106.809ZM60.1737 107.06C60.1243 107.074 60.0713 107.068 60.0262 107.043C59.9811 107.019 59.9477 106.977 59.9332 106.928C59.9309 106.92 59.9291 106.912 59.9278 106.903C59.9205 106.857 59.9304 106.809 59.9557 106.769C59.981 106.73 60.0199 106.7 60.0652 106.687C60.1104 106.674 60.1589 106.678 60.2016 106.698C60.2443 106.718 60.2782 106.753 60.297 106.796C60.3005 106.804 60.3035 106.811 60.3058 106.819C60.3201 106.869 60.3142 106.922 60.2894 106.967C60.2647 107.012 60.223 107.045 60.1737 107.06V107.06Z" fill="#6C63FF"/>
<path d="M59.7722 106.975C59.7598 106.932 59.761 106.887 59.7756 106.845C59.7902 106.803 59.8176 106.767 59.8538 106.741C59.8198 106.739 59.786 106.746 59.755 106.76C59.7241 106.774 59.697 106.795 59.6759 106.822C59.6549 106.849 59.6405 106.88 59.634 106.913C59.6275 106.947 59.6291 106.981 59.6386 107.014C59.6481 107.046 59.6653 107.076 59.6887 107.101C59.7121 107.126 59.741 107.144 59.7731 107.155C59.8052 107.167 59.8395 107.17 59.8732 107.165C59.9068 107.161 59.9389 107.148 59.9666 107.128C59.9223 107.126 59.8797 107.11 59.8449 107.083C59.81 107.055 59.7846 107.017 59.7722 106.975Z" fill="#6C63FF"/>
<path d="M65.8012 107.936C65.7971 107.921 65.7901 107.907 65.7806 107.895C65.7711 107.883 65.7593 107.873 65.7458 107.865C65.7324 107.858 65.7176 107.853 65.7024 107.851C65.6871 107.849 65.6715 107.85 65.6567 107.854L64.3691 108.215L64.2304 108.253H65.1013L65.2399 108.215L65.7199 108.08C65.7499 108.072 65.7752 108.052 65.7905 108.025C65.8057 107.998 65.8096 107.966 65.8012 107.936Z" fill="#CCCCCC"/>
<path d="M64.8902 107.667C64.8819 107.637 64.8619 107.612 64.8348 107.596C64.8077 107.581 64.7757 107.577 64.7457 107.586L62.8137 108.126C62.7867 108.134 62.7633 108.151 62.7478 108.174C62.7322 108.197 62.7255 108.226 62.7289 108.253H63.2291L63.368 108.215L64.809 107.812C64.8389 107.803 64.8643 107.783 64.8795 107.756C64.8948 107.729 64.8986 107.697 64.8902 107.667Z" fill="#CCCCCC"/>
<path d="M69.8642 108.215H60.4967C60.4607 108.215 60.4262 108.229 60.4007 108.254C60.3753 108.28 60.3609 108.314 60.3609 108.35V113.897C60.3609 113.933 60.3753 113.968 60.4007 113.993C60.4262 114.019 60.4607 114.033 60.4967 114.033H69.8642C69.9002 114.033 69.9347 114.019 69.9602 113.993C69.9856 113.968 69.9999 113.933 70 113.897V108.35C69.9999 108.314 69.9856 108.28 69.9602 108.254C69.9347 108.229 69.9002 108.215 69.8642 108.215ZM69.9612 113.897C69.9612 113.923 69.951 113.948 69.9328 113.966C69.9146 113.984 69.8899 113.994 69.8642 113.994H60.4967C60.4709 113.994 60.4463 113.984 60.4281 113.966C60.4099 113.948 60.3997 113.923 60.3997 113.897V108.35C60.3997 108.325 60.4099 108.3 60.4281 108.282C60.4463 108.264 60.4709 108.253 60.4967 108.253H69.8642C69.8899 108.253 69.9146 108.264 69.9328 108.282C69.951 108.3 69.9612 108.325 69.9612 108.35V113.897Z" fill="white"/>
<path d="M61.4081 108.971C61.3621 108.971 61.3171 108.957 61.2788 108.932C61.2406 108.906 61.2107 108.87 61.1931 108.827C61.1755 108.785 61.1709 108.738 61.1799 108.693C61.1889 108.648 61.211 108.606 61.2436 108.574C61.2761 108.541 61.3176 108.519 61.3627 108.51C61.4079 108.501 61.4547 108.506 61.4972 108.523C61.5397 108.541 61.5761 108.571 61.6017 108.609C61.6272 108.647 61.6409 108.692 61.6409 108.738C61.6408 108.8 61.6163 108.859 61.5726 108.903C61.529 108.946 61.4699 108.971 61.4081 108.971ZM61.4081 108.544C61.3698 108.544 61.3323 108.556 61.3004 108.577C61.2685 108.598 61.2436 108.629 61.229 108.664C61.2143 108.7 61.2104 108.739 61.2179 108.776C61.2254 108.814 61.2439 108.848 61.271 108.875C61.2981 108.903 61.3327 108.921 61.3703 108.929C61.4079 108.936 61.4469 108.932 61.4824 108.917C61.5178 108.903 61.5481 108.878 61.5694 108.846C61.5907 108.814 61.6021 108.777 61.6021 108.738C61.602 108.687 61.5816 108.638 61.5452 108.601C61.5089 108.565 61.4596 108.544 61.4081 108.544Z" fill="#6C63FF"/>
<path d="M61.0464 108.738C61.0464 108.694 61.0603 108.651 61.086 108.614C61.1118 108.578 61.1482 108.551 61.1902 108.537C61.158 108.526 61.1237 108.522 61.0901 108.527C61.0564 108.532 61.0244 108.545 60.9968 108.565C60.9691 108.584 60.9465 108.61 60.9309 108.641C60.9154 108.671 60.9073 108.704 60.9073 108.738C60.9073 108.772 60.9154 108.806 60.9309 108.836C60.9465 108.866 60.9691 108.892 60.9968 108.912C61.0244 108.932 61.0564 108.945 61.0901 108.949C61.1237 108.954 61.158 108.951 61.1902 108.94C61.1482 108.925 61.1118 108.898 61.086 108.862C61.0603 108.826 61.0464 108.783 61.0464 108.738Z" fill="#6C63FF"/>
<path d="M62.3516 111.488C62.3053 111.488 62.2609 111.47 62.2282 111.437C62.1955 111.404 62.1771 111.36 62.177 111.313V110.79C62.177 110.744 62.1954 110.699 62.2281 110.666C62.2609 110.634 62.3053 110.615 62.3516 110.615C62.3978 110.615 62.4422 110.634 62.475 110.666C62.5077 110.699 62.5261 110.744 62.5261 110.79V111.313C62.5261 111.36 62.5076 111.404 62.4749 111.437C62.4422 111.47 62.3978 111.488 62.3516 111.488Z" fill="#6C63FF"/>
<path d="M62.817 111.488C62.7708 111.488 62.7264 111.47 62.6937 111.437C62.6609 111.404 62.6425 111.36 62.6425 111.313V110.79C62.6425 110.744 62.6609 110.699 62.6936 110.666C62.7263 110.634 62.7707 110.615 62.817 110.615C62.8633 110.615 62.9077 110.634 62.9405 110.666C62.9732 110.699 62.9916 110.744 62.9916 110.79V111.313C62.9915 111.36 62.9731 111.404 62.9404 111.437C62.9077 111.47 62.8633 111.488 62.817 111.488Z" fill="#6C63FF"/>
<path d="M63.2825 111.488C63.2362 111.488 63.1918 111.47 63.1591 111.437C63.1264 111.404 63.108 111.36 63.1079 111.313V110.79C63.1079 110.744 63.1263 110.699 63.1591 110.666C63.1918 110.634 63.2362 110.615 63.2825 110.615C63.3288 110.615 63.3732 110.634 63.4059 110.666C63.4387 110.699 63.457 110.744 63.457 110.79V111.313C63.457 111.36 63.4386 111.404 63.4059 111.437C63.3731 111.47 63.3288 111.488 63.2825 111.488Z" fill="#6C63FF"/>
<path d="M64.0001 111.488C63.9538 111.488 63.9095 111.47 63.8767 111.437C63.844 111.404 63.8256 111.36 63.8256 111.313V110.79C63.8256 110.744 63.844 110.699 63.8767 110.666C63.9094 110.634 63.9538 110.615 64.0001 110.615C64.0464 110.615 64.0908 110.634 64.1235 110.666C64.1563 110.699 64.1747 110.744 64.1747 110.79V111.313C64.1746 111.36 64.1562 111.404 64.1235 111.437C64.0908 111.47 64.0464 111.488 64.0001 111.488Z" fill="#6C63FF"/>
<path d="M64.4656 111.488C64.4193 111.488 64.3749 111.47 64.3422 111.437C64.3095 111.404 64.2911 111.36 64.291 111.313V110.79C64.291 110.744 64.3094 110.699 64.3421 110.666C64.3749 110.634 64.4193 110.615 64.4656 110.615C64.5119 110.615 64.5563 110.634 64.589 110.666C64.6217 110.699 64.6401 110.744 64.6401 110.79V111.313C64.6401 111.36 64.6217 111.404 64.5889 111.437C64.5562 111.47 64.5118 111.488 64.4656 111.488Z" fill="#6C63FF"/>
<path d="M64.9311 111.488C64.8848 111.488 64.8404 111.47 64.8077 111.437C64.775 111.404 64.7566 111.36 64.7565 111.313V110.79C64.7565 110.744 64.7749 110.699 64.8076 110.666C64.8404 110.634 64.8848 110.615 64.9311 110.615C64.9773 110.615 65.0217 110.634 65.0545 110.666C65.0872 110.699 65.1056 110.744 65.1056 110.79V111.313C65.1055 111.36 65.0871 111.404 65.0544 111.437C65.0217 111.47 64.9773 111.488 64.9311 111.488Z" fill="#6C63FF"/>
<path d="M65.6486 111.488C65.6024 111.488 65.558 111.47 65.5253 111.437C65.4926 111.404 65.4741 111.36 65.4741 111.313V110.79C65.4741 110.744 65.4925 110.699 65.5252 110.666C65.558 110.634 65.6023 110.615 65.6486 110.615C65.6949 110.615 65.7393 110.634 65.7721 110.666C65.8048 110.699 65.8232 110.744 65.8232 110.79V111.313C65.8231 111.36 65.8047 111.404 65.772 111.437C65.7393 111.47 65.6949 111.488 65.6486 111.488Z" fill="#6C63FF"/>
<path d="M66.1141 111.488C66.0678 111.488 66.0235 111.47 65.9907 111.437C65.958 111.404 65.9396 111.36 65.9395 111.313V110.79C65.9395 110.744 65.9579 110.699 65.9907 110.666C66.0234 110.634 66.0678 110.615 66.1141 110.615C66.1604 110.615 66.2048 110.634 66.2375 110.666C66.2703 110.699 66.2886 110.744 66.2886 110.79V111.313C66.2886 111.36 66.2702 111.404 66.2375 111.437C66.2047 111.47 66.1604 111.488 66.1141 111.488Z" fill="#6C63FF"/>
<path d="M66.5796 111.488C66.5333 111.488 66.4889 111.47 66.4562 111.437C66.4235 111.404 66.4051 111.36 66.405 111.313V110.79C66.405 110.744 66.4234 110.699 66.4562 110.666C66.4889 110.634 66.5333 110.615 66.5796 110.615C66.6259 110.615 66.6703 110.634 66.703 110.666C66.7357 110.699 66.7541 110.744 66.7541 110.79V111.313C66.7541 111.36 66.7357 111.404 66.7029 111.437C66.6702 111.47 66.6259 111.488 66.5796 111.488Z" fill="#6C63FF"/>
<path d="M67.2972 111.488C67.2509 111.488 67.2065 111.47 67.1738 111.437C67.1411 111.404 67.1227 111.36 67.1226 111.313V110.79C67.1226 110.744 67.141 110.699 67.1737 110.666C67.2065 110.634 67.2509 110.615 67.2972 110.615C67.3435 110.615 67.3879 110.634 67.4206 110.666C67.4533 110.699 67.4717 110.744 67.4717 110.79V111.313C67.4717 111.36 67.4533 111.404 67.4205 111.437C67.3878 111.47 67.3434 111.488 67.2972 111.488Z" fill="#6C63FF"/>
<path d="M67.7626 111.488C67.7163 111.488 67.672 111.47 67.6393 111.437C67.6065 111.404 67.5881 111.36 67.5881 111.313V110.79C67.5881 110.744 67.6065 110.699 67.6392 110.666C67.6719 110.634 67.7163 110.615 67.7626 110.615C67.8089 110.615 67.8533 110.634 67.8861 110.666C67.9188 110.699 67.9372 110.744 67.9372 110.79V111.313C67.9371 111.36 67.9187 111.404 67.886 111.437C67.8533 111.47 67.8089 111.488 67.7626 111.488Z" fill="#6C63FF"/>
<path d="M68.2281 111.488C68.1818 111.488 68.1375 111.47 68.1047 111.437C68.072 111.404 68.0536 111.36 68.0536 111.313V110.79C68.0536 110.744 68.0719 110.699 68.1047 110.666C68.1374 110.634 68.1818 110.615 68.2281 110.615C68.2744 110.615 68.3188 110.634 68.3515 110.666C68.3843 110.699 68.4027 110.744 68.4027 110.79V111.313C68.4026 111.36 68.3842 111.404 68.3515 111.437C68.3188 111.47 68.2744 111.488 68.2281 111.488Z" fill="#6C63FF"/>
<path d="M63.535 113.431H61.0245C60.9934 113.431 60.9636 113.418 60.9416 113.396C60.9196 113.374 60.9073 113.345 60.9073 113.313C60.9073 113.282 60.9196 113.253 60.9416 113.231C60.9636 113.209 60.9934 113.196 61.0245 113.196H63.535C63.5661 113.196 63.5959 113.209 63.6179 113.231C63.6399 113.253 63.6523 113.282 63.6523 113.313C63.6523 113.345 63.6399 113.374 63.6179 113.396C63.5959 113.418 63.5661 113.431 63.535 113.431Z" fill="#E6E6E6"/>
<path d="M62.7301 112.926H61.8294C61.7983 112.926 61.7685 112.914 61.7465 112.892C61.7245 112.87 61.7121 112.84 61.7121 112.809C61.7121 112.778 61.7245 112.748 61.7465 112.726C61.7685 112.704 61.7983 112.692 61.8294 112.692H62.7301C62.7612 112.692 62.791 112.704 62.813 112.726C62.835 112.748 62.8474 112.778 62.8474 112.809C62.8474 112.84 62.835 112.87 62.813 112.892C62.791 112.914 62.7612 112.926 62.7301 112.926Z" fill="#E6E6E6"/>
<path d="M69.9542 109.374H60.3927V109.413H69.9542V109.374Z" fill="white"/>
</g>
</g>
<defs>
<clipPath id="clip0">
<rect width="254" height="147.014" fill="white"/>
</clipPath>
<clipPath id="clip1">
<rect width="11" height="10.033" fill="white" transform="translate(59 104)"/>
</clipPath>
</defs>
</svg>
