<svg width="24" height="29" viewBox="0 0 24 29" fill="none" xmlns="http://www.w3.org/2000/svg">
<path d="M21.2922 11L19.9463 19.1627C19.8666 19.6457 19.4491 20 18.9596 20H7.04301C6.55352 20 6.13597 19.6457 6.05633 19.1627L4.84848 11.8373C4.76884 11.3543 4.3513 11 3.8618 11H1.99997" stroke="black" stroke-linecap="round" stroke-linejoin="round"/>
<path fill-rule="evenodd" clip-rule="evenodd" d="M8 25C8.55228 25 9 24.5523 9 24C9 23.4477 8.55228 23 8 23C7.44772 23 7 23.4477 7 24C7 24.5523 7.44772 25 8 25Z" stroke="black"/>
<path fill-rule="evenodd" clip-rule="evenodd" d="M18 25C18.5523 25 19 24.5523 19 24C19 23.4477 18.5523 23 18 23C17.4477 23 17 23.4477 17 24C17 24.5523 17.4477 25 18 25Z" stroke="black"/>
<path d="M16 13H10" stroke="black" stroke-linecap="round"/>
<path d="M13 10V16" stroke="black" stroke-linecap="round"/>
<circle cx="18" cy="6" r="6" fill="#F7D74B"/>
<path d="M16.9043 5.00586H17.583C18.0094 4.99935 18.3447 4.88704 18.5889 4.66895C18.833 4.45085 18.9551 4.15625 18.9551 3.78516C18.9551 2.95182 18.54 2.53516 17.71 2.53516C17.3193 2.53516 17.0068 2.64746 16.7725 2.87207C16.5413 3.09342 16.4258 3.38802 16.4258 3.75586H15.5225C15.5225 3.19271 15.7275 2.72559 16.1377 2.35449C16.5511 1.98014 17.0752 1.79297 17.71 1.79297C18.3805 1.79297 18.9062 1.97038 19.2871 2.3252C19.668 2.68001 19.8584 3.17318 19.8584 3.80469C19.8584 4.11393 19.7575 4.41341 19.5557 4.70312C19.3571 4.99284 19.0853 5.20931 18.7402 5.35254C19.1309 5.47624 19.432 5.68132 19.6436 5.96777C19.8584 6.25423 19.9658 6.60417 19.9658 7.01758C19.9658 7.6556 19.7575 8.16178 19.3408 8.53613C18.9242 8.91048 18.3822 9.09766 17.7148 9.09766C17.0475 9.09766 16.5039 8.91699 16.084 8.55566C15.6673 8.19434 15.459 7.71745 15.459 7.125H16.3672C16.3672 7.49935 16.4893 7.79883 16.7334 8.02344C16.9775 8.24805 17.3047 8.36035 17.7148 8.36035C18.151 8.36035 18.4847 8.24642 18.7158 8.01855C18.9469 7.79069 19.0625 7.46354 19.0625 7.03711C19.0625 6.6237 18.9355 6.30632 18.6816 6.08496C18.4277 5.86361 18.0615 5.74967 17.583 5.74316H16.9043V5.00586Z" fill="black"/>
</svg>
