<svg width="22" height="22" viewBox="0 0 22 22" fill="none" xmlns="http://www.w3.org/2000/svg">
<path fill-rule="evenodd" clip-rule="evenodd" d="M18.6444 7.02109C19.2586 7.49684 19.6353 8.20359 19.6995 8.97267L19.7087 9.15692V16.5902C19.7087 18.506 18.1952 20.0643 16.2987 20.1652H14.4745C13.6027 20.1478 12.8978 19.4694 12.8337 18.6169L12.8245 18.4877V15.8669C12.8245 15.5818 12.6127 15.3444 12.3295 15.2977L12.247 15.2885H9.79858C9.50616 15.2977 9.26783 15.5085 9.23116 15.7835L9.22199 15.8669V18.4794C9.22199 18.5335 9.21191 18.5977 9.20366 18.6435L9.19449 18.6628L9.18441 18.726C9.07533 19.5061 8.43366 20.101 7.63616 20.1569L7.51699 20.1652H5.87616C3.96033 20.1652 2.39283 18.6628 2.29199 16.7735V9.15692C2.30024 8.37684 2.64033 7.65267 3.20866 7.1485L8.91949 2.556C10.0837 1.63109 11.7153 1.59442 12.9152 2.446L13.0628 2.556L18.6444 7.02109ZM18.4245 16.7369L18.4345 16.5902V9.16523C18.4245 8.77198 18.2604 8.4044 17.9762 8.13032L17.857 8.02857L12.2654 3.55523C11.5687 2.99607 10.5787 2.96948 9.84537 3.4544L9.70695 3.55523L4.13362 8.04782C3.8137 8.28523 3.6212 8.64273 3.57537 9.01857L3.56529 9.16523V16.5902C3.56529 17.8094 4.51862 18.8086 5.72954 18.8819H7.51704C7.7187 18.8819 7.89287 18.7453 7.91945 18.5528L7.9387 18.3878L7.94787 18.3411V15.867C7.94787 14.8861 8.69954 14.0886 9.66204 14.0144H12.247C13.227 14.0144 14.0245 14.767 14.0987 15.7295V18.4877C14.0987 18.6802 14.2362 18.8461 14.4195 18.8819H16.1236C17.352 18.8819 18.3511 17.9386 18.4245 16.7369Z" fill="black"/>
</svg>
