<svg width="20" height="20" viewBox="0 0 20 20" fill="none" xmlns="http://www.w3.org/2000/svg">
<path fill-rule="evenodd" clip-rule="evenodd" d="M10.0036 1.66666C7.55854 1.66666 5.57646 3.65719 5.57646 6.11263C5.57646 8.56808 7.55854 10.5586 10.0036 10.5586C12.4486 10.5586 14.4307 8.56808 14.4307 6.11263C14.4307 3.65719 12.4486 1.66666 10.0036 1.66666ZM10.0036 2.87306C11.7852 2.87306 13.2295 4.32347 13.2295 6.11264C13.2295 7.90182 11.7852 9.35223 10.0036 9.35223C8.22205 9.35223 6.77779 7.90182 6.77779 6.11264C6.77779 4.32347 8.22205 2.87306 10.0036 2.87306ZM8.19169 12.3507C7.54359 12.3957 6.88849 12.4882 6.24231 12.6267C4.99513 12.8836 3.99736 13.3969 3.57268 14.2499C3.4125 14.5835 3.33197 14.9406 3.33333 15.3022C3.33285 15.6612 3.41273 16.0189 3.56716 16.346C3.97493 17.1892 4.85648 17.6664 6.04685 17.9309L6.26008 17.9754C6.88872 18.1172 7.54402 18.2127 8.2037 18.2575C8.25989 18.274 8.39379 18.2893 8.53995 18.2968L8.66016 18.3013C8.72197 18.3027 8.79213 18.3031 8.89665 18.3031C9.84485 18.3552 10.8278 18.34 11.8062 18.2567C12.3276 18.2211 12.8526 18.1529 13.3731 18.053L13.7625 17.9721C15.0479 17.7185 16.0105 17.2363 16.4321 16.347C16.7448 15.6867 16.7448 14.9205 16.4323 14.2606C16.0117 13.3735 15.0614 12.8953 13.7528 12.6257C13.2394 12.5161 12.7177 12.435 12.1922 12.3832L11.8081 12.3507C10.6049 12.2446 9.39483 12.2446 8.19169 12.3507ZM11.7029 13.5524L11.7135 13.5533C12.3165 13.5957 12.9159 13.6804 13.5072 13.8066C14.4792 14.0068 15.1388 14.3388 15.3475 14.7789C15.5046 15.1108 15.5046 15.4964 15.3474 15.8286C15.1524 16.2398 14.5599 16.5575 13.7037 16.7517L13.5162 16.7914C12.9133 16.9259 12.3159 17.0126 11.7146 17.0539C10.7815 17.1332 9.85405 17.1475 8.9289 17.0975L8.6009 17.0919C8.50984 17.0872 8.43311 17.0785 8.36199 17.0642C7.79886 17.0217 7.29215 16.9544 6.80015 16.8569L6.50639 16.7947C5.53135 16.6036 4.86589 16.2702 4.65013 15.8241C4.57463 15.6641 4.5343 15.4835 4.53454 15.3007C4.53387 15.1189 4.57366 14.9424 4.65091 14.7815C4.8607 14.3603 5.56592 13.9975 6.48831 13.8075C7.08387 13.6798 7.68294 13.5952 8.28571 13.5533C9.42995 13.4525 10.5697 13.4525 11.7029 13.5524Z" fill="#200E32"/>
</svg>
